<?xml version="1.0" encoding="utf-8"?>
<!-- Generator: Adobe Illustrator 24.2.0, SVG Export Plug-In . SVG Version: 6.00 Build 0)  -->
<svg version="1.1" id="Warstwa_1" xmlns="http://www.w3.org/2000/svg" xmlns:xlink="http://www.w3.org/1999/xlink" x="0px" y="0px"
	 viewBox="0 0 182.62 60" style="enable-background:new 0 0 182.62 60;" xml:space="preserve">
<g>
	<path d="M58.57,47.49c0,3.68-1.52,6.72-4.57,9.14C51.15,58.87,47.74,60,43.77,60c-3.43,0-6.5-0.9-9.23-2.71
		c-3.05-2.03-5.2-4.93-6.47-8.71c-0.25-0.76-1.41-4.89-3.47-12.37c-1.87-6.79-3.51-12.1-4.9-15.94c-1.94-5.23-3.51-7.77-4.71-7.61
		c-0.79,0.19-1.35,0.52-1.67,0.98c-0.32,0.46-0.48,1.1-0.48,1.93v43.63H0V12.56c0-4.25,1.6-7.49,4.81-9.71C7.57,0.95,11.1,0,15.42,0
		c5.77,0,10.36,2.9,13.75,8.71c2.28,3.87,4.46,10.13,6.52,18.79c2.28,9.52,3.95,15.42,5,17.7c0.57,1.24,1.44,1.86,2.62,1.86
		c0.63,0,1.18-0.25,1.64-0.76c0.46-0.51,0.69-1.21,0.69-2.09V0.62h12.94V47.49z"/>
	<path d="M121.28,59.19h-13.75L92.36,14.46c-0.1-0.48-0.43-0.71-1-0.71c-0.54,0-0.94,0.24-1.19,0.71L75.32,59.19H61.38
		c0.79-2.76,2.5-8.25,5.11-16.46c2.62-8.22,5.16-15.99,7.64-23.31c2.76-8.15,4.44-12.69,5.04-13.61c1.14-1.62,2.81-2.85,5-3.71
		c2.19-0.86,4.57-1.28,7.14-1.28s4.94,0.43,7.11,1.28c2.17,0.86,3.83,2.09,4.97,3.71c0.7,0.95,2.41,5.46,5.14,13.51
		c1.68,4.95,4.19,12.72,7.52,23.31C118.08,49.07,119.83,54.59,121.28,59.19z"/>
	<path d="M182.62,47.49c0,3.68-1.52,6.72-4.57,9.14c-2.85,2.25-6.26,3.38-10.23,3.38c-3.43,0-6.5-0.9-9.23-2.71
		c-3.05-2.03-5.2-4.93-6.47-8.71c-0.25-0.76-1.41-4.89-3.47-12.37c-1.87-6.79-3.51-12.1-4.9-15.94c-1.93-5.23-3.51-7.77-4.71-7.61
		c-0.79,0.19-1.35,0.52-1.67,0.98c-0.32,0.46-0.48,1.1-0.48,1.93v43.63h-12.85V12.56c0-4.25,1.6-7.49,4.81-9.71
		c2.76-1.9,6.3-2.85,10.61-2.85c5.77,0,10.36,2.9,13.75,8.71c2.28,3.87,4.46,10.13,6.52,18.79c2.28,9.52,3.95,15.42,5,17.7
		c0.57,1.24,1.44,1.86,2.62,1.86c0.63,0,1.18-0.25,1.64-0.76c0.46-0.51,0.69-1.21,0.69-2.09V0.62h12.94V47.49z"/>
</g>
</svg>
