<?xml version="1.0" encoding="utf-8"?>
<!-- Generator: Adobe Illustrator 24.2.0, SVG Export Plug-In . SVG Version: 6.00 Build 0)  -->
<svg version="1.1" id="Warstwa_1" xmlns="http://www.w3.org/2000/svg" xmlns:xlink="http://www.w3.org/1999/xlink" x="0px" y="0px"
	 viewBox="0 0 24 24" style="enable-background:new 0 0 24 24;" xml:space="preserve">
<g>
	<g>
		<path d="M24,0H0v24h24V0z M22.1,1.9v20.2H1.9V1.9H22.1z"/>
		<path d="M11.9,16.5c-0.4,0-0.8,0.2-1.1,0.5c-0.3,0.3-0.5,0.7-0.5,1.1c0,0.5,0.2,0.9,0.5,1.2c0.3,0.3,0.7,0.4,1.1,0.4
			c0.4,0,0.8-0.1,1.1-0.4c0.3-0.3,0.5-0.7,0.5-1.2c0-0.4-0.2-0.8-0.5-1.1C12.7,16.6,12.3,16.5,11.9,16.5z"/>
		<path d="M14.8,4.2c-0.8-0.4-1.7-0.6-2.7-0.6c-1.1,0-2.1,0.2-2.9,0.7C8.4,4.8,7.8,5.3,7.4,6c-0.4,0.7-0.6,1.4-0.6,2
			c0,0.3,0.1,0.6,0.4,0.9c0.3,0.3,0.6,0.4,1,0.4c0.7,0,1.1-0.4,1.4-1.2c0.3-0.8,0.6-1.3,0.9-1.7c0.4-0.4,0.9-0.6,1.7-0.6
			c0.7,0,1.2,0.2,1.6,0.6c0.4,0.4,0.6,0.9,0.6,1.4c0,0.3-0.1,0.6-0.2,0.8c-0.1,0.2-0.3,0.5-0.5,0.7c-0.2,0.2-0.5,0.5-1,0.9
			c-0.5,0.5-0.9,0.8-1.2,1.2c-0.3,0.3-0.5,0.7-0.7,1.1c-0.2,0.4-0.3,0.9-0.3,1.5c0,0.5,0.1,0.8,0.4,1.1c0.2,0.2,0.6,0.4,0.9,0.4
			c0.7,0,1.1-0.4,1.3-1.1c0.1-0.3,0.1-0.6,0.2-0.7c0-0.1,0.1-0.3,0.2-0.4c0.1-0.1,0.2-0.3,0.3-0.5c0.1-0.2,0.3-0.4,0.6-0.6
			c0.9-0.8,1.5-1.3,1.8-1.7c0.3-0.3,0.6-0.7,0.9-1.2c0.2-0.5,0.4-1,0.4-1.6c0-0.8-0.2-1.5-0.6-2.1C16.2,5.1,15.6,4.6,14.8,4.2z"/>
	</g>
</g>
</svg>
