<?xml version="1.0" encoding="utf-8"?>
<!-- Generator: Adobe Illustrator 24.3.0, SVG Export Plug-In . SVG Version: 6.00 Build 0)  -->
<svg version="1.1" id="Layer_1" xmlns="http://www.w3.org/2000/svg" xmlns:xlink="http://www.w3.org/1999/xlink" x="0px" y="0px"
	 viewBox="0 0 24 24" style="enable-background:new 0 0 24 24;" xml:space="preserve">
<style type="text/css">
	.st0{fill:#010101;}
</style>
<g>
	<path class="st0" d="M24,1.88H0v20.24h24V1.88z M23.3,2.58v18.83H0.7V2.58H23.3z"/>
	<path class="st0" d="M22.14,5.64H1.85l0,0.7h20.3L22.14,5.64z"/>
	<path class="st0" d="M2.61,4.46c0.09,0,0.18-0.04,0.25-0.1c0.07-0.07,0.1-0.16,0.1-0.25c0-0.09-0.04-0.18-0.1-0.25
		c-0.07-0.07-0.16-0.1-0.25-0.1c-0.09,0-0.18,0.04-0.25,0.1c-0.07,0.07-0.1,0.16-0.1,0.25c0,0.09,0.04,0.18,0.1,0.25
		C2.42,4.42,2.51,4.46,2.61,4.46z"/>
	<path class="st0" d="M5.61,4.46c0.09,0,0.18-0.04,0.25-0.1c0.07-0.07,0.1-0.16,0.1-0.25c0-0.09-0.04-0.18-0.1-0.25
		c-0.07-0.07-0.16-0.1-0.25-0.1c-0.09,0-0.18,0.04-0.25,0.1c-0.07,0.07-0.1,0.16-0.1,0.25c0,0.09,0.04,0.18,0.1,0.25
		C5.43,4.42,5.52,4.46,5.61,4.46z"/>
	<path class="st0" d="M4.11,4.46c0.09,0,0.18-0.04,0.25-0.1c0.07-0.07,0.1-0.16,0.1-0.25c0-0.09-0.04-0.18-0.1-0.25
		c-0.07-0.07-0.16-0.1-0.25-0.1c-0.09,0-0.18,0.04-0.25,0.1c-0.07,0.07-0.1,0.16-0.1,0.25c0,0.09,0.04,0.18,0.1,0.25
		C3.93,4.42,4.02,4.46,4.11,4.46z"/>
	<path class="st0" d="M8.37,9.87l-3.76,3.76l-0.25,0.25l4.01,4.01l0.5-0.5l-3.51-3.51l3.51-3.51L8.37,9.87z"/>
	<path class="st0" d="M15.63,9.87l-0.5,0.5l3.51,3.51l-3.51,3.51l0.5,0.5l4.01-4.01l-0.25-0.25L15.63,9.87z"/>
	<path class="st0" d="M13.17,9.63l-3.01,8.27l0.66,0.24l3.01-8.27L13.17,9.63z"/>
</g>
</svg>
