<?xml version="1.0" encoding="utf-8"?>
<!-- Generator: Adobe Illustrator 24.0.3, SVG Export Plug-In . SVG Version: 6.00 Build 0)  -->
<svg version="1.1" id="Warstwa_1" xmlns="http://www.w3.org/2000/svg" xmlns:xlink="http://www.w3.org/1999/xlink" x="0px" y="0px"
	 viewBox="0 0 448 448" style="enable-background:new 0 0 448 448;" xml:space="preserve">
<g>
	<path d="M144.65,252.33c0,8.91-3.69,16.29-11.06,22.12c-6.91,5.46-15.17,8.18-24.78,8.18c-8.3,0-15.75-2.19-22.36-6.57
		c-7.38-4.92-12.6-11.94-15.67-21.09c-0.62-1.84-3.42-11.83-8.41-29.96c-4.53-16.44-8.49-29.31-11.87-38.6
		c-4.69-12.68-8.49-18.82-11.41-18.44c-1.92,0.46-3.27,1.25-4.03,2.36c-0.77,1.11-1.15,2.67-1.15,4.67v105.67H2.79V167.75
		c0-10.29,3.88-18.13,11.64-23.51c6.68-4.61,15.25-6.91,25.7-6.91c13.98,0,25.08,7.03,33.3,21.09c5.53,9.37,10.79,24.54,15.79,45.52
		c5.53,23.05,9.56,37.34,12.1,42.87c1.38,3,3.49,4.49,6.34,4.49c1.54,0,2.86-0.61,3.98-1.84c1.11-1.23,1.67-2.92,1.67-5.07V138.82
		h31.34V252.33z"/>
	<path d="M296.53,280.68h-33.3l-36.76-108.32c-0.23-1.15-1.04-1.73-2.42-1.73c-1.31,0-2.27,0.58-2.88,1.73l-35.95,108.32h-33.76
		c1.92-6.68,6.05-19.97,12.39-39.87c6.34-19.9,12.5-38.72,18.5-56.46c6.68-19.74,10.75-30.73,12.21-32.96
		c2.77-3.92,6.8-6.91,12.1-8.99s11.06-3.11,17.29-3.11s11.96,1.04,17.23,3.11c5.26,2.07,9.28,5.07,12.04,8.99
		c1.69,2.3,5.84,13.21,12.45,32.73c4.07,11.98,10.14,30.81,18.21,56.46C288.77,256.17,292.99,269.54,296.53,280.68z"/>
	<path d="M445.06,252.33c0,8.91-3.69,16.29-11.06,22.12c-6.91,5.46-15.17,8.18-24.78,8.18c-8.3,0-15.75-2.19-22.36-6.57
		c-7.38-4.92-12.6-11.94-15.67-21.09c-0.62-1.84-3.42-11.83-8.41-29.96c-4.53-16.44-8.49-29.31-11.87-38.6
		c-4.69-12.68-8.49-18.82-11.41-18.44c-1.92,0.46-3.27,1.25-4.03,2.36c-0.77,1.11-1.15,2.67-1.15,4.67v105.67h-31.11V167.75
		c0-10.29,3.88-18.13,11.64-23.51c6.68-4.61,15.25-6.91,25.7-6.91c13.98,0,25.08,7.03,33.3,21.09c5.53,9.37,10.79,24.54,15.79,45.52
		c5.53,23.05,9.56,37.34,12.1,42.87c1.38,3,3.5,4.49,6.34,4.49c1.54,0,2.86-0.61,3.98-1.84c1.11-1.23,1.67-2.92,1.67-5.07V138.82
		h31.34V252.33z"/>
</g>
</svg>
