<?xml version="1.0" encoding="utf-8"?>
<!-- Generator: Adobe Illustrator 24.2.0, SVG Export Plug-In . SVG Version: 6.00 Build 0)  -->
<svg version="1.1" id="Warstwa_1" xmlns="http://www.w3.org/2000/svg" xmlns:xlink="http://www.w3.org/1999/xlink" x="0px" y="0px"
	 viewBox="0 0 24 24" style="enable-background:new 0 0 24 24;" xml:space="preserve">
<path d="M23.57,12c-0.47-0.86-1.27-1.49-2.25-1.77c-0.33-0.09-0.68-0.14-1.02-0.14c-0.6,0-1.17,0.15-1.69,0.41c0-0.27,0-0.52,0-0.76
	c0-0.14,0-0.28,0-0.41c0-0.36-0.29-0.65-0.65-0.65H0.65C0.29,8.68,0,8.97,0,9.32c0,0.13,0,0.27,0,0.41
	c-0.01,2.53-0.04,7.24,4.12,12.17c0.12,0.15,0.3,0.23,0.5,0.23h9.37c0.19,0,0.37-0.08,0.5-0.23c0.39-0.46,0.74-0.92,1.06-1.37
	c0.86-0.13,6.91-1.2,8.27-5.58C24.13,13.93,24.04,12.88,23.57,12z M4.92,20.84C1.37,16.5,1.29,12.48,1.3,9.97h16.01
	c0.01,2.51-0.07,6.53-3.62,10.86H4.92z M22.57,14.57c-0.85,2.75-4.22,3.96-6.07,4.43c1.44-2.57,1.9-4.97,2.04-6.88
	c0.45-0.46,1.08-0.74,1.75-0.74c0.23,0,0.45,0.03,0.67,0.09c0.65,0.18,1.17,0.59,1.47,1.14C22.74,13.2,22.79,13.87,22.57,14.57z"/>
<path d="M6.87,1.86c-0.36,0-0.65,0.29-0.65,0.65c0,0.2-0.03,0.27-0.1,0.41C6.03,3.13,5.9,3.4,5.9,3.89s0.13,0.76,0.22,0.97
	C6.19,5,6.22,5.07,6.22,5.27c0,0.2-0.03,0.27-0.1,0.41C6.03,5.88,5.9,6.16,5.9,6.65c0,0.36,0.29,0.65,0.65,0.65
	c0.36,0,0.65-0.29,0.65-0.65c0-0.2,0.03-0.27,0.1-0.41c0.09-0.2,0.22-0.48,0.22-0.97S7.39,4.51,7.29,4.3
	c-0.07-0.14-0.1-0.21-0.1-0.41c0-0.2,0.03-0.27,0.1-0.41C7.39,3.28,7.52,3,7.52,2.51C7.52,2.16,7.23,1.86,6.87,1.86"/>
<path d="M9.46,1.86c-0.36,0-0.65,0.29-0.65,0.65c0,0.2-0.03,0.27-0.1,0.41C8.62,3.13,8.49,3.4,8.49,3.89s0.13,0.76,0.22,0.97
	C8.78,5,8.82,5.07,8.82,5.27c0,0.2-0.03,0.27-0.1,0.41c-0.09,0.2-0.22,0.48-0.22,0.97c0,0.36,0.29,0.65,0.65,0.65
	c0.36,0,0.65-0.29,0.65-0.65c0-0.2,0.03-0.27,0.1-0.41c0.09-0.2,0.22-0.48,0.22-0.97S9.98,4.51,9.89,4.3
	c-0.07-0.14-0.1-0.21-0.1-0.41c0-0.2,0.03-0.27,0.1-0.41c0.09-0.2,0.22-0.48,0.22-0.97C10.11,2.16,9.82,1.86,9.46,1.86"/>
<path d="M12.06,1.86c-0.36,0-0.65,0.29-0.65,0.65c0,0.2-0.03,0.27-0.1,0.41c-0.09,0.2-0.22,0.48-0.22,0.97s0.13,0.76,0.22,0.97
	c0.07,0.14,0.1,0.21,0.1,0.41c0,0.2-0.03,0.27-0.1,0.41c-0.09,0.2-0.22,0.48-0.22,0.97c0,0.36,0.29,0.65,0.65,0.65
	c0.36,0,0.65-0.29,0.65-0.65c0-0.2,0.03-0.27,0.1-0.41c0.09-0.2,0.22-0.48,0.22-0.97s-0.13-0.76-0.22-0.97
	c-0.07-0.14-0.1-0.21-0.1-0.41c0-0.2,0.03-0.27,0.1-0.41c0.09-0.2,0.22-0.48,0.22-0.97C12.71,2.16,12.42,1.86,12.06,1.86"/>
</svg>
