<?xml version="1.0" encoding="utf-8"?>
<!-- Generator: Adobe Illustrator 23.1.1, SVG Export Plug-In . SVG Version: 6.00 Build 0)  -->
<svg version="1.1" id="Warstwa_1" xmlns="http://www.w3.org/2000/svg" xmlns:xlink="http://www.w3.org/1999/xlink" x="0px" y="0px"
	 viewBox="0 0 448 448" style="enable-background:new 0 0 448 448;" xml:space="preserve">
<path d="M358.5,176.4l-5.7,10c-2.1,3.7-6.6,5.3-10.6,3.8c-8.3-3.1-15.8-7.5-22.5-13c-3.2-2.7-4.1-7.4-2-11l5.7-10
	c-4.8-5.6-8.6-12.1-11.1-19.2h-11.6c-4.2,0-7.8-3-8.5-7.2c-1.4-8.4-1.5-17.2,0-26c0.7-4.2,4.3-7.3,8.5-7.3h11.6
	c2.5-7.1,6.3-13.6,11.1-19.2l-5.7-10c-2.1-3.6-1.3-8.3,2-11c6.7-5.5,14.3-9.9,22.5-13c4-1.5,8.5,0.1,10.6,3.8l5.7,10
	c7.4-1.3,14.8-1.3,22.2,0l5.7-10c2.1-3.7,6.6-5.3,10.6-3.8c8.3,3.1,15.8,7.5,22.5,13c3.2,2.7,4.1,7.4,2,11l-5.7,10
	c4.8,5.6,8.6,12.1,11.1,19.2h11.6c4.2,0,7.8,3,8.5,7.2c1.4,8.4,1.5,17.2,0,26c-0.7,4.2-4.3,7.3-8.5,7.3h-11.6
	c-2.5,7.1-6.3,13.6-11.1,19.2l5.7,10c2.1,3.6,1.3,8.3-2,11c-6.7,5.5-14.3,9.9-22.5,13c-4,1.5-8.5-0.1-10.6-3.8l-5.7-10
	C373.4,177.8,365.9,177.8,358.5,176.4z M351.2,135.3c27,20.7,57.7-10,37-37C361.2,77.5,330.4,108.3,351.2,135.3z M270.4,243
	l23.6,11.8c7.1,4.1,10.2,12.7,7.4,20.4c-6.2,16.9-18.5,32.5-29.8,46.1c-5.2,6.2-14.1,7.8-21.2,3.7L230,313.2
	c-11.2,9.6-24.2,17.2-38.4,22.2v23.5c0,8.1-5.8,15.1-13.8,16.5c-17.2,2.9-35.3,3.1-53.1,0c-8.1-1.4-14-8.3-14-16.5v-23.5
	c-14.2-5-27.2-12.6-38.4-22.2l-20.4,11.7c-7,4.1-16,2.5-21.2-3.7c-11.3-13.6-23.3-29.1-29.5-46c-2.8-7.6,0.3-16.2,7.4-20.4L31.7,243
	c-2.7-14.6-2.7-29.7,0-44.4L8.4,186.8c-7.1-4.1-10.2-12.7-7.4-20.3c6.2-16.9,18.2-32.5,29.5-46.1c5.2-6.2,14.1-7.8,21.2-3.7
	l20.4,11.8c11.2-9.6,24.2-17.2,38.4-22.2V82.7c0-8.1,5.7-15.1,13.7-16.5c17.2-2.9,35.4-3.1,53.2-0.1c8.1,1.4,14,8.3,14,16.5v23.5
	c14.2,5,27.2,12.6,38.4,22.2l20.4-11.8c7-4.1,16-2.5,21.2,3.7c11.3,13.6,23.2,29.1,29.5,46.1c2.8,7.6,0.1,16.2-7,20.4l-23.6,11.8
	C273.2,213.3,273.2,228.3,270.4,243z M188.1,257.8c41.4-53.9-20.1-115.4-74-74C72.7,237.7,134.2,299.2,188.1,257.8z M358.5,385.7
	l-5.7,10c-2.1,3.7-6.6,5.3-10.6,3.8c-8.3-3.1-15.8-7.5-22.5-13c-3.2-2.7-4.1-7.4-2-11l5.7-10c-4.8-5.6-8.6-12.1-11.1-19.2h-11.6
	c-4.2,0-7.8-3-8.5-7.2c-1.4-8.4-1.5-17.2,0-26c0.7-4.2,4.3-7.3,8.5-7.3h11.6c2.5-7.1,6.3-13.6,11.1-19.2l-5.7-10
	c-2.1-3.6-1.3-8.3,2-11c6.7-5.5,14.3-9.9,22.5-13c4-1.5,8.5,0.1,10.6,3.8l5.7,10c7.4-1.3,14.8-1.3,22.2,0l5.7-10
	c2.1-3.7,6.6-5.3,10.6-3.8c8.3,3.1,15.8,7.5,22.5,13c3.2,2.7,4.1,7.4,2,11l-5.7,10c4.8,5.6,8.6,12.1,11.1,19.2h11.6
	c4.2,0,7.8,3,8.5,7.2c1.4,8.4,1.5,17.2,0,26c-0.7,4.2-4.3,7.3-8.5,7.3h-11.6c-2.5,7.1-6.3,13.6-11.1,19.2l5.7,10
	c2.1,3.6,1.3,8.3-2,11c-6.7,5.5-14.3,9.9-22.5,13c-4,1.5-8.5-0.1-10.6-3.8l-5.7-10C373.4,387,365.9,387,358.5,385.7z M351.2,344.5
	c27,20.7,57.7-10,37-37C361.2,286.8,330.4,317.5,351.2,344.5L351.2,344.5z"/>
</svg>
