<?xml version="1.0" encoding="utf-8"?>
<!-- Generator: Adobe Illustrator 24.3.0, SVG Export Plug-In . SVG Version: 6.00 Build 0)  -->
<svg version="1.1" id="Layer_1" xmlns="http://www.w3.org/2000/svg" xmlns:xlink="http://www.w3.org/1999/xlink" x="0px" y="0px"
	 viewBox="0 0 100 100" style="enable-background:new 0 0 100 100;" xml:space="preserve">
<style type="text/css">
	.iconCss01{fill:#797A7D;}
	.iconCss02{fill:#808285;}
	.iconCss03{fill:#EBEBEC;}
	.iconCss04{fill:#FFFFFF;}
</style>
<g id="layer1" transform="translate(-193.633,-276.3622)">
	<g id="g3013" transform="translate(119,276.3622)">
		<polygon id="polygon2989" class="iconCss01" points="160.06,19.65 153.6,91.96 124.59,100 95.66,91.97 89.21,19.65 		"/>
		<polygon id="polygon2991" class="iconCss02" points="148.08,87.35 153.59,25.57 124.63,25.57 124.63,93.85 		"/>
		<polygon id="polygon2993" class="iconCss03" points="103.99,52.39 104.79,61.26 124.63,61.26 124.63,52.39 		"/>
		<polygon id="polygon2995" class="iconCss03" points="124.63,34.43 124.6,34.43 102.39,34.43 103.2,43.3 124.63,43.3 		"/>
		<polygon id="polygon2997" class="iconCss03" points="124.63,84.65 124.63,75.42 124.59,75.43 114.72,72.76 114.08,65.69 109.29,65.69 
			105.18,65.69 106.42,79.62 124.59,84.66 		"/>
		<path id="path2999" d="M105.88,0h10.74v4.49h-6.25v4.49h6.25v4.49h-10.74V0z"/>
		<path id="path3001" d="M118.77,0h10.74v3.91h-6.25v0.78h6.25v8.98h-10.74v-4.1h6.25V8.79h-6.25V0z"/>
		<path id="path3003" d="M131.66,0h10.74v3.91h-6.25v0.78h6.25v8.98h-10.74v-4.1h6.25V8.79h-6.25V0z"/>
		<polygon id="polygon3005" class="iconCss04" points="135.52,61.26 134.49,72.76 124.6,75.43 124.6,84.66 142.78,79.62 142.92,78.12 
			145,54.77 145.22,52.39 146.82,34.43 124.6,34.43 124.6,43.3 137.1,43.3 136.29,52.39 124.6,52.39 124.6,61.26 		"/>
	</g>
</g>
</svg>
