<?xml version="1.0" encoding="utf-8"?>
<!-- Generator: Adobe Illustrator 24.2.0, SVG Export Plug-In . SVG Version: 6.00 Build 0)  -->
<svg version="1.1" id="Warstwa_1" xmlns="http://www.w3.org/2000/svg" xmlns:xlink="http://www.w3.org/1999/xlink" x="0px" y="0px"
	 viewBox="0 0 24 24" style="enable-background:new 0 0 24 24;" xml:space="preserve">
<g>
	<path d="M21.8,4.5C21.8,4.5,21.8,4.5,21.8,4.5L21.8,4.5c0-0.1,0-0.1,0-0.1c0,0,0,0,0,0c0,0,0,0,0-0.1c0,0,0,0,0,0c0,0,0,0,0,0v0
		c0,0,0,0,0,0c0,0,0,0,0,0c0,0,0,0,0,0l0,0c0,0,0,0,0,0l0,0l-4-4l0,0c0,0,0,0,0,0l0,0c0,0,0,0,0,0c0,0,0,0,0,0c0,0,0,0,0,0
		c0,0,0,0,0,0c0,0,0,0,0,0l0,0c0,0,0,0,0,0c0,0,0,0,0,0c0,0,0,0,0,0h0c0,0,0,0,0,0c0,0,0,0-0.1,0H2.8C2.5,0,2.2,0.3,2.2,0.6v22.9
		c0,0.3,0.2,0.6,0.6,0.6h18.4c0.3,0,0.6-0.3,0.6-0.6L21.8,4.5C21.8,4.6,21.8,4.5,21.8,4.5z M17.8,2l2,2h-2V2z M3.4,22.9V1.1h13.3
		v3.4c0,0.3,0.3,0.6,0.6,0.6h3.4v17.7L3.4,22.9L3.4,22.9z"/>
	<path d="M7.4,8.8c0,0.3,0.3,0.6,0.6,0.6h3.7c0.3,0,0.6-0.3,0.6-0.6s-0.3-0.6-0.6-0.6H7.9C7.6,8.2,7.4,8.5,7.4,8.8z"/>
	<path d="M11.5,5.9c0-0.9-0.8-1.7-1.7-1.7C8.8,4.2,8.1,5,8.1,5.9s0.8,1.7,1.7,1.7C10.7,7.7,11.5,6.9,11.5,5.9z M9.2,5.9
		c0-0.3,0.3-0.6,0.6-0.6c0.3,0,0.6,0.3,0.6,0.6c0,0.3-0.3,0.6-0.6,0.6S9.2,6.3,9.2,5.9z"/>
	<path d="M5.7,11.7h8.2c0.3,0,0.6-0.3,0.6-0.6V9.3c0-0.3-0.3-0.6-0.6-0.6S13.3,9,13.3,9.3v1.2H6.2V3.4h7.1v3.9
		c0,0.3,0.3,0.6,0.6,0.6s0.6-0.3,0.6-0.6V2.9c0-0.3-0.3-0.6-0.6-0.6H5.7c-0.3,0-0.6,0.3-0.6,0.6v8.2C5.1,11.4,5.3,11.7,5.7,11.7z"/>
	<path d="M18.3,13.4H5.7c-0.3,0-0.6,0.3-0.6,0.6c0,0.3,0.3,0.6,0.6,0.6h12.7c0.3,0,0.6-0.3,0.6-0.6C18.9,13.6,18.7,13.4,18.3,13.4z"
		/>
	<path d="M18.3,16.2H5.7c-0.3,0-0.6,0.3-0.6,0.6c0,0.3,0.3,0.6,0.6,0.6h12.7c0.3,0,0.6-0.3,0.6-0.6C18.9,16.5,18.7,16.2,18.3,16.2z"
		/>
	<path d="M18.3,19.1H5.7c-0.3,0-0.6,0.3-0.6,0.6c0,0.3,0.3,0.6,0.6,0.6h12.7c0.3,0,0.6-0.3,0.6-0.6C18.9,19.3,18.7,19.1,18.3,19.1z"
		/>
</g>
</svg>
