<?xml version="1.0" encoding="utf-8"?>
<!-- Generator: Adobe Illustrator 24.2.0, SVG Export Plug-In . SVG Version: 6.00 Build 0)  -->
<svg version="1.1" id="Warstwa_1" xmlns="http://www.w3.org/2000/svg" xmlns:xlink="http://www.w3.org/1999/xlink" x="0px" y="0px"
	 viewBox="0 0 24 24" style="enable-background:new 0 0 24 24;" xml:space="preserve">
<g>
	<path d="M21.77,4.51c0-0.01,0-0.03-0.01-0.04c0,0,0-0.01,0-0.01c0-0.02-0.01-0.03-0.01-0.05c0,0,0,0,0-0.01
		c0-0.02-0.01-0.03-0.02-0.05c0,0,0,0,0-0.01c-0.01-0.01-0.01-0.03-0.02-0.04c0,0,0-0.01,0-0.01c-0.01-0.01-0.01-0.02-0.02-0.04
		c0,0,0-0.01-0.01-0.01c-0.01-0.01-0.02-0.02-0.02-0.03c0,0-0.01-0.01-0.01-0.01c-0.01-0.01-0.02-0.02-0.03-0.03
		c0,0-0.01-0.01-0.01-0.01l-4-4c0,0-0.01-0.01-0.01-0.01c-0.01-0.01-0.02-0.02-0.03-0.03c0,0-0.01-0.01-0.01-0.01
		c-0.01-0.01-0.02-0.02-0.03-0.02c0,0-0.01,0-0.01-0.01c-0.01-0.01-0.02-0.02-0.04-0.02c0,0,0,0-0.01,0
		c-0.01-0.01-0.03-0.01-0.04-0.02c0,0,0,0,0,0c-0.02-0.01-0.03-0.01-0.05-0.02c0,0,0,0-0.01,0c-0.02,0-0.03-0.01-0.05-0.01
		c0,0-0.01,0-0.01,0c-0.01,0-0.03,0-0.04-0.01c-0.02,0-0.04,0-0.06,0H2.8C2.48,0,2.23,0.26,2.23,0.57v22.86
		C2.23,23.74,2.48,24,2.8,24h18.4c0.32,0,0.57-0.26,0.57-0.57V4.57C21.77,4.55,21.77,4.53,21.77,4.51z M17.77,1.95L19.82,4h-2.05
		V1.95z M3.37,22.86V1.14h13.26v3.43c0,0.32,0.26,0.57,0.57,0.57h3.43v17.71H3.37z"/>
	<path d="M7.37,8.8c0,0.32,0.26,0.57,0.57,0.57h3.66c0.32,0,0.57-0.26,0.57-0.57s-0.26-0.57-0.57-0.57H7.94
		C7.63,8.23,7.37,8.48,7.37,8.8z"/>
	<path d="M11.49,5.94c0-0.95-0.77-1.71-1.71-1.71C8.83,4.23,8.06,5,8.06,5.94s0.77,1.71,1.71,1.71C10.72,7.66,11.49,6.89,11.49,5.94
		z M9.2,5.94c0-0.32,0.26-0.57,0.57-0.57c0.32,0,0.57,0.26,0.57,0.57c0,0.32-0.26,0.57-0.57,0.57C9.46,6.51,9.2,6.26,9.2,5.94z"/>
	<path d="M5.66,11.66h8.23c0.32,0,0.57-0.26,0.57-0.57V9.26c0-0.32-0.26-0.57-0.57-0.57s-0.57,0.26-0.57,0.57v1.25H6.23V3.43h7.09
		v3.89c0,0.32,0.26,0.57,0.57,0.57s0.57-0.26,0.57-0.57V2.86c0-0.32-0.26-0.57-0.57-0.57H5.66c-0.32,0-0.57,0.26-0.57,0.57v8.23
		C5.09,11.4,5.34,11.66,5.66,11.66z"/>
	<path d="M18.34,13.37H5.66c-0.32,0-0.57,0.26-0.57,0.57c0,0.32,0.26,0.57,0.57,0.57h12.69c0.32,0,0.57-0.26,0.57-0.57
		C18.91,13.63,18.66,13.37,18.34,13.37z"/>
	<path d="M18.34,16.23H5.66c-0.32,0-0.57,0.26-0.57,0.57c0,0.32,0.26,0.57,0.57,0.57h12.69c0.32,0,0.57-0.26,0.57-0.57
		C18.91,16.48,18.66,16.23,18.34,16.23z"/>
	<path d="M18.34,19.09H5.66c-0.32,0-0.57,0.26-0.57,0.57c0,0.32,0.26,0.57,0.57,0.57h12.69c0.32,0,0.57-0.26,0.57-0.57
		C18.91,19.34,18.66,19.09,18.34,19.09z"/>
</g>
</svg>
