<?xml version="1.0" encoding="utf-8"?>
<!-- Generator: Adobe Illustrator 24.3.0, SVG Export Plug-In . SVG Version: 6.00 Build 0)  -->
<svg version="1.1" id="Layer_1" xmlns="http://www.w3.org/2000/svg" xmlns:xlink="http://www.w3.org/1999/xlink" x="0px" y="0px"
	 viewBox="0 0 100 100" style="enable-background:new 0 0 100 100;" xml:space="preserve">
<path d="M15.06,34.91H0v30.31h15.06c7.53,0,15.06-6.79,15.06-15.15S22.59,34.91,15.06,34.91z M15.06,56.95
	c-3.8,0-6.89-3.09-6.88-6.89c0-3.8,3.09-6.89,6.89-6.88c3.8,0,6.89,3.09,6.88,6.89C21.95,53.87,18.87,56.95,15.06,56.95
	C15.06,56.95,15.06,56.95,15.06,56.95z"/>
<path d="M45.57,34.91c4.53,0,6.86,2.75,6.86,6.53v3.38c0,3.78-2.32,6.53-6.86,6.53h-7.19V34.91H45.57z M48.38,41.42
	c0-2.09-1.1-3.19-3.55-3.19H42.4v9.81h2.44c2.44,0,3.55-1.1,3.55-3.19V41.42z M64.93,48.3h-5.94l-0.92,3.05h-4.04l5.87-16.44h4.13
	l5.87,16.44h-4.04L64.93,48.3z M59.98,45.06h3.97l-1.97-6.5L59.98,45.06z M82.68,34.91v3.41h-4.44v13.03h-4.04V38.32h-4.44v-3.41
	H82.68z M92.46,51.68c-4.98,0-7.54-3.19-7.54-7.49v-2.11c0-4.3,2.56-7.49,7.54-7.49c4.98,0,7.54,3.19,7.54,7.49v2.11
	C100,48.48,97.44,51.68,92.46,51.68L92.46,51.68z M92.46,37.94c-2.35,0-3.5,1.57-3.5,3.92v2.54c0,2.35,1.15,3.92,3.5,3.92
	c2.35,0,3.5-1.57,3.5-3.92v-2.54C95.96,39.51,94.81,37.94,92.46,37.94L92.46,37.94z M41.98,63.38c1.01,0.08,1.9-0.67,1.98-1.69
	c0-0.06,0.01-0.12,0.01-0.18h2.28c-0.03,2.12-1.59,3.9-4.24,3.9c-3.1,0-4.59-1.95-4.59-4.56v-1.32c0-2.61,1.49-4.56,4.59-4.56
	c2.65,0,4.21,1.78,4.24,3.9h-2.28c0.01-1.02-0.8-1.85-1.81-1.87c-0.06,0-0.12,0-0.18,0.01c-1.49,0-2.09,0.99-2.09,2.41v1.55
	C39.89,62.39,40.49,63.38,41.98,63.38z M56.16,55.18h2.26v10.03h-2.36v-5.3l-1.58,3.07h-1.95l-1.56-3.07v5.3h-2.36V55.18h2.26
	l2.64,5.46L56.16,55.18z M64.88,65.42c-2.41,0-4.03-1.15-4.03-3.17v-0.27h2.36v0.2c0,0.85,0.54,1.36,1.68,1.36
	c1.02,0,1.69-0.42,1.69-1.19c0.04-0.43-0.26-0.82-0.69-0.89l-2.51-0.63c-1.56-0.39-2.36-1.07-2.36-2.71c0-1.99,1.42-3.14,3.8-3.14
	c2.25,0,3.68,1.22,3.68,3.05v0.24h-2.28v-0.17c0-0.67-0.37-1.23-1.4-1.23c-0.86,0-1.4,0.3-1.4,1.02c-0.03,0.4,0.25,0.76,0.64,0.82
	l2.67,0.72c1.61,0.43,2.25,1.32,2.25,2.71C68.98,64.14,67.2,65.42,64.88,65.42L64.88,65.42z"/>
</svg>
