<?xml version="1.0" encoding="utf-8"?>
<!-- Generator: Adobe Illustrator 24.2.0, SVG Export Plug-In . SVG Version: 6.00 Build 0)  -->
<svg version="1.1" id="Warstwa_1" xmlns="http://www.w3.org/2000/svg" xmlns:xlink="http://www.w3.org/1999/xlink" x="0px" y="0px"
	 viewBox="0 0 24 24" style="enable-background:new 0 0 24 24;" xml:space="preserve">
<g>
	<g>
		<path d="M23.43,9.57h-3.21V7.19c0-0.31-0.25-0.57-0.57-0.57h-7.68l-1.36-2.89c-0.09-0.2-0.29-0.33-0.51-0.33H0.57
			C0.25,3.41,0,3.66,0,3.97v16.05c0,0.31,0.25,0.57,0.57,0.57c0,0,0,0,0,0h19.09c0.23,0,0.45-0.15,0.53-0.36l3.78-9.89
			C24.1,9.96,23.83,9.57,23.43,9.57z M1.13,4.54h8.62l1.36,2.89c0.09,0.2,0.29,0.33,0.51,0.33h7.47v1.81H4.34
			c-0.23,0-0.45,0.15-0.53,0.36l-2.68,7.02V4.54z M19.27,19.46H1.39l3.34-8.76c0.82,0,17.06,0,17.88,0L19.27,19.46z"/>
	</g>
</g>
</svg>
