<?xml version="1.0" encoding="utf-8"?>
<!-- Generator: Adobe Illustrator 24.3.0, SVG Export Plug-In . SVG Version: 6.00 Build 0)  -->
<svg version="1.1" id="Layer_1" xmlns="http://www.w3.org/2000/svg" xmlns:xlink="http://www.w3.org/1999/xlink" x="0px" y="0px"
	 viewBox="0 0 24 24" style="enable-background:new 0 0 24 24;" xml:space="preserve">
<style type="text/css">
	.st0{fill:#010101;}
</style>
<g>
	<g>
		<path class="st0" d="M24,1.8l-11.57,0c-0.03,0-0.05-0.02-0.05-0.05V1.38h-0.75V1.8H0V22.2h11.62v0.43h0.75V22.2H24L24,1.8z
			 M0.75,3.81V2.56H2v1.25H0.75z M11.62,17.74l-2.69-7.17h2.69V17.74z M7.85,9.82H4.89l2.15-2.15L7.85,9.82z M7.73,7.37h3.28
			L8.55,9.55L7.73,7.37z M8.13,10.57l2.74,7.3l-6.08-7.3H8.13z M11.62,9.82H9.38l2.24-1.99V9.82z M11.62,6.61H7.19
			c-0.1,0-0.2,0.04-0.27,0.11L3.72,9.93c-0.14,0.14-0.15,0.36-0.02,0.51l7.93,9.52v1.49H0.75V4.56h10.87V6.61z M11.62,3.81H2.76
			V2.56h8.87V3.81z M19.99,2.56h1.25v1.25h-1.25V2.56z M17.99,2.56h1.25v1.25h-1.25L17.99,2.56L17.99,2.56z M12.38,2.56h4.86v1.25
			h-4.86V2.56z M23.25,21.44H12.38V4.56h10.87V21.44z M23.25,3.81H22V2.56h1.25L23.25,3.81L23.25,3.81z"/>
	</g>
</g>
<g>
	<g>
		<path class="st0" d="M14.81,7.01h-0.79L14,7.77h0.79L14.81,7.01z"/>
	</g>
</g>
<g>
	<g>
		<path class="st0" d="M14.81,10.22H14v0.75h0.8V10.22z"/>
	</g>
</g>
<g>
	<g>
		<path class="st0" d="M16.01,8.62h-0.8v0.75h0.8V8.62z"/>
	</g>
</g>
<g>
	<g>
		<path class="st0" d="M21.62,7.01h-5.21v0.75h5.22c0,0,0,0,0,0L21.62,7.01z"/>
	</g>
</g>
<g>
	<g>
		<path class="st0" d="M22,10.22h-5.59v0.75H22V10.22z"/>
	</g>
</g>
<g>
	<g>
		<path class="st0" d="M21.62,8.62h-4.01v0.75h4.01L21.62,8.62z"/>
	</g>
</g>
<g>
	<g>
		<path class="st0" d="M16.01,11.82h-0.8v0.75h0.8V11.82z"/>
	</g>
</g>
<g>
	<g>
		<path class="st0" d="M21.62,11.82h-4.01v0.75h4.01L21.62,11.82z"/>
	</g>
</g>
<g>
	<g>
		<path class="st0" d="M14.81,13.43H14v0.75h0.8V13.43z"/>
	</g>
</g>
<g>
	<g>
		<path class="st0" d="M14.81,16.63H14v0.75h0.8V16.63z"/>
	</g>
</g>
<g>
	<g>
		<path class="st0" d="M16.01,15.03h-0.8v0.75h0.8V15.03z"/>
	</g>
</g>
<g>
	<g>
		<path class="st0" d="M21.62,13.43h-5.21v0.75h5.21V13.43z"/>
	</g>
</g>
<g>
	<g>
		<path class="st0" d="M21.62,16.63h-5.21v0.75h5.21V16.63z"/>
	</g>
</g>
<g>
	<g>
		<path class="st0" d="M21.62,15.03h-4.01v0.75h4.01L21.62,15.03z"/>
	</g>
</g>
<g>
	<g>
		<path class="st0" d="M16.01,18.24h-0.8v0.75h0.8V18.24z"/>
	</g>
</g>
<g>
	<g>
		<path class="st0" d="M21.62,18.24h-4.01v0.75h4.01L21.62,18.24z"/>
	</g>
</g>
</svg>
