<?xml version="1.0" encoding="utf-8"?>
<!-- Generator: Adobe Illustrator 24.3.0, SVG Export Plug-In . SVG Version: 6.00 Build 0)  -->
<svg version="1.1" id="Layer_1" xmlns="http://www.w3.org/2000/svg" xmlns:xlink="http://www.w3.org/1999/xlink" x="0px" y="0px"
	 viewBox="0 0 100 100" style="enable-background:new 0 0 100 100;" xml:space="preserve">
<g>
	<path d="M50,0C22.39,0,0,22.39,0,50c0,27.61,22.39,50,50,50c27.61,0,50-22.39,50-50S77.61,0,50,0z M10.74,50.52l38.73,38.74
		C28.21,88.98,11.02,71.79,10.74,50.52z M58.79,88.27L11.73,41.21C15.72,23.76,31.34,10.74,50,10.74c13.05,0,24.6,6.36,31.74,16.16
		l-5.44,4.8C70.52,23.38,60.89,17.95,50,17.95c-13.87,0-25.68,8.81-30.14,21.14l41.06,41.06c9.97-3.61,17.64-12.03,20.21-22.45H64.1
		V50h17.95v0h7.21v0C89.26,68.66,76.24,84.28,58.79,88.27z"/>
</g>
</svg>
