<?xml version="1.0" encoding="utf-8"?>
<!-- Generator: Adobe Illustrator 24.3.0, SVG Export Plug-In . SVG Version: 6.00 Build 0)  -->
<svg version="1.1" id="Layer_1" xmlns="http://www.w3.org/2000/svg" xmlns:xlink="http://www.w3.org/1999/xlink" x="0px" y="0px"
	 viewBox="0 0 100 100" style="enable-background:new 0 0 100 100;" xml:space="preserve">
<style type="text/css">
	.st0{fill:#010101;}
</style>
<g>
	<path class="st0" d="M98.11,45.55L54.45,1.89c-2.51-2.52-6.59-2.52-9.11,0l-9.07,9.07l11.5,11.5c2.67-0.9,5.74-0.3,7.87,1.83
		c2.14,2.14,2.74,5.23,1.82,7.92l11.08,11.08c2.68-0.92,5.78-0.33,7.92,1.82c2.99,2.99,2.99,7.84,0,10.84
		c-2.99,2.99-7.84,2.99-10.84,0c-2.25-2.25-2.81-5.56-1.67-8.33L53.62,37.27v27.2c0.73,0.36,1.42,0.84,2.03,1.45
		c2.99,2.99,2.99,7.84,0,10.84c-2.99,2.99-7.85,2.99-10.84,0c-2.99-3-2.99-7.85,0-10.84c0.74-0.74,1.6-1.3,2.51-1.67V36.8
		c-0.91-0.37-1.77-0.93-2.51-1.67c-2.27-2.27-2.81-5.59-1.65-8.38L31.82,15.41L1.89,45.34c-2.51,2.52-2.51,6.59,0,9.11l43.66,43.66
		c2.51,2.51,6.59,2.51,9.11,0l43.46-43.46C100.63,52.14,100.63,48.06,98.11,45.55z"/>
</g>
</svg>
