<?xml version="1.0" encoding="utf-8"?>
<!-- Generator: Adobe Illustrator 24.3.0, SVG Export Plug-In . SVG Version: 6.00 Build 0)  -->
<svg version="1.1" id="Layer_1" xmlns="http://www.w3.org/2000/svg" xmlns:xlink="http://www.w3.org/1999/xlink" x="0px" y="0px"
	 viewBox="0 0 100 100" style="enable-background:new 0 0 100 100;" xml:space="preserve">
<g>
	<g>
		<g>
			<rect x="-8.68" y="37.62" transform="matrix(0.5 -0.866 0.866 0.5 -18.308 47.7683)" width="81.79" height="4.24"/>
		</g>
	</g>
	<g>
		<g>
			<rect x="9.09" y="68.44" width="81.79" height="4.24"/>
		</g>
	</g>
	<g>
		<g>
			<rect x="30.11" y="57.17" transform="matrix(0.5 -0.866 0.866 0.5 -53.8567 68.3034)" width="4.24" height="47.24"/>
		</g>
	</g>
	<g>
		<g>
			<rect x="65.65" y="-4.39" transform="matrix(0.5 -0.866 0.866 0.5 17.2272 68.301)" width="4.24" height="47.24"/>
		</g>
	</g>
	<g>
		<g>
			<rect x="8.62" y="17.1" transform="matrix(0.866 -0.5 0.5 0.866 -5.2886 18.6929)" width="47.24" height="4.24"/>
		</g>
	</g>
	<g>
		<g>
			<rect x="65.67" y="-1.16" transform="matrix(0.866 -0.5 0.5 0.866 -10.7875 39.2222)" width="4.24" height="81.79"/>
		</g>
	</g>
	<g>
		<g>
			<rect x="12.33" y="26.38" width="4.24" height="47.24"/>
		</g>
	</g>
	<g>
		<g>
			<rect x="83.43" y="26.38" width="4.24" height="47.24"/>
		</g>
	</g>
	<g>
		<g>
			<rect x="47.22" y="78.92" transform="matrix(0.866 -0.5 0.5 0.866 -31.3067 44.7048)" width="41.09" height="3.7"/>
		</g>
	</g>
	<path d="M93.28,75c-2.45,4.26-7.92,5.72-12.18,3.27s-5.72-7.92-3.27-12.18c2.45-4.26,7.92-5.72,12.18-3.27
		C94.31,65.3,95.76,70.74,93.28,75"/>
	<path d="M22.14,33.91c-2.45,4.26-7.92,5.72-12.18,3.27S4.24,29.26,6.69,25s7.92-5.72,12.18-3.27
		C23.14,24.21,24.59,29.65,22.14,33.91"/>
	<path d="M6.72,75c-2.45-4.26-1-9.7,3.27-12.18c4.26-2.45,9.7-1,12.18,3.27c2.45,4.26,1,9.7-3.27,12.18
		C14.61,80.72,9.17,79.26,6.72,75"/>
	<path d="M77.86,33.91c-2.45-4.26-1-9.7,3.27-12.18c4.26-2.45,9.7-1,12.18,3.27c2.45,4.26,1,9.7-3.27,12.18
		C85.78,39.63,80.31,38.18,77.86,33.91"/>
	<path d="M50,100c-4.93,0-8.91-3.98-8.91-8.91s3.98-8.91,8.91-8.91s8.91,3.98,8.91,8.91C58.91,95.99,54.93,100,50,100"/>
	<path d="M50,17.82c-4.93,0-8.91-3.98-8.91-8.91S45.07,0,50,0s8.91,3.98,8.91,8.91S54.93,17.82,50,17.82"/>
</g>
</svg>
