<?xml version="1.0" encoding="utf-8"?>
<!-- Generator: Adobe Illustrator 24.3.0, SVG Export Plug-In . SVG Version: 6.00 Build 0)  -->
<svg version="1.1" id="Layer_1" xmlns="http://www.w3.org/2000/svg" xmlns:xlink="http://www.w3.org/1999/xlink" x="0px" y="0px"
	 viewBox="0 0 100 100" style="enable-background:new 0 0 100 100;" xml:space="preserve">
<style type="text/css">
	.iconGrung01{fill:#ABADB0;}
	.iconGrung02{fill:#939598;}
	.iconGrung03{fill:#C4C6C8;}
	.iconGrung04{fill:#FFFFFF;}
	.iconGrung05{fill:#C2C4C6;}
</style>
<path class="iconGrung01" d="M17.7,24.3c0,0,1.71,6.61,1.96,8.81c0.24,2.2-4.4,7.09-4.4,9.54c0,2.45,0.98,6.85,6.36,9.05
	c5.38,2.2,6.12,7.83,6.12,11.25c0,3.42-1.96,10.03-1.96,10.03s-1.22,16.39,5.38,19.33c6.6,2.94,5.14,2.94,6.6,2.94
	c1.47,0,12.23,4.4,18.59,2.69c6.36-1.71,8.07-3.67,8.07-3.67s6.36,0.49,8.32-5.14c1.96-5.63,3.18-17.37,2.45-22.75
	c-0.73-5.38-1.71-12.48,2.69-14.92c4.4-2.45,9.05-5.38,8.32-7.83c-0.73-2.45-4.65-5.87-4.65-5.87s-0.98-6.12-0.25-7.58
	c0.73-1.47,5.14-5.14,2.69-7.83c-2.44-2.69-6.85-2.69-6.85-2.69l-5.63,0.49c0,0-9.54-8.56-22.02-8.07
	c-12.48,0.49-20.31,8.07-20.31,8.07s-4.16-1.47-7.83,0C17.7,21.61,16.97,20.15,17.7,24.3z"/>
<path class="st1" d="M40.06,60.73c0,0-4.84,7.41-8.4,12.66c-0.55,0.81,3.55,0.87,3.55,0.87L40.06,60.73L40.06,60.73z M42.36,45.37
	c0,0-1.46,3.64-2.26,5.57c-0.87,2.1-4.18,3.14-4.18,3.14s1.72-1.8,1.72-6.36c0-1.91,2.47-2.67,2.47-2.67L42.36,45.37L42.36,45.37z"
	/>
<path class="iconGrung02" d="M40.89,47.43c0,0-2.99,3.56-8.55,1.57c-5.56-1.99-6.13-9.12-6.13-11.11s10.54,1.99,11.97,2.85
	C39.61,41.59,42.31,45.01,40.89,47.43L40.89,47.43z M19.9,9.37c0,0,5.13-1,8.55,1.71c3.42,2.71,4.42,4.84,4.42,4.84l-5.76,4.57
	c0,0-2.78-1.29-3.64-5C22.61,11.79,23.18,10.09,19.9,9.37L19.9,9.37z"/>
<path class="iconGrung02" d="M39.39,37.14c-2.21-3.13-5.85-4.5-8.75-4.73c-4.95-0.39-7.31,1.36-7.31,1.36s8.11,0.34,10.45,3.41
	c4.35,5.72,10.7,6.18,11.72,4.93c-1.17,0.06-2.47-0.52-3.85-1.83C40.79,39.47,40.09,38.14,39.39,37.14z M25.7,48.23
	c0,0-9-3.09-7.29-6.23c1.71-3.13,0.35-4.84,0.35-4.84s-5.03,3.75-3.75,7.74c0.79,2.45,2.11,4.22,9.36,7.62
	c3.48,6.46,0.72,18.09,0.88,18.14c0.28,0.09,4.88-2.28,4.57-13.16C29.72,54.16,29.46,49.6,25.7,48.23L25.7,48.23z M37.49,14.95
	c-3.77,1.92-8.95,4.59-8.95,4.59l2.04,1.02c-0.19,0.31-0.29,0.5-0.29,0.5l2.09,0.95c0,0,5.1,3.69,8.22,6.07
	c-1.04-3.21-4.1-8.25-4.1-8.25S35.64,17.51,37.49,14.95L37.49,14.95z M50.03,93.12c-11.6,0-15.53-5.89-15.53-5.89l1.81,4.42
	c0.69,1.91,8,7.85,13.7,7.85"/>
<path class="iconGrung02" d="M35.77,83.25c0,0,1.07,6.52,5.34,6.52c3.63,0,4.7-5.51,4.7-6.65L35.77,83.25L35.77,83.25z M28.66,73.41
	c0.38-1.05,1.71-5.27,2.14-9.12c0.51-4.61,0.33-11.34,0.33-11.34s-1.14,4.42-2.14,5.13c-1,0.71-2.85,5.56-2.85,5.56
	s-0.99,7.21-1.46,9.63C25.98,73.53,27.08,72.76,28.66,73.41L28.66,73.41z M18.34,44.83c0,0,2.42-0.86,3.13-6.13
	c0.71-5.27-0.86-9.83-0.86-9.83s0.14,7.27-0.71,8.69c-0.86,1.42-1.57,1.85-2.56,3.7C16.34,43.12,17.77,44.26,18.34,44.83
	L18.34,44.83z"/>
<path class="iconGrung03" d="M21.23,10.62l-0.49-0.31C19.28,10.36,21.23,10.62,21.23,10.62z"/>
<path class="iconGrung01" d="M39.46,13.39c0,0-2.28-0.38-3.42-2.09c-1.14-1.71-4.37-5.13-9.52-5.17C21.38,6.09,16.29,7.5,16.29,7.5
	l4.45,2.81c0.47-0.02,1.29-0.01,2.65,0.04c5.58,0.19,6.44,5.7,6.44,5.7l19.66-2.71"/>
<path class="iconGrung04" d="M41.36,43.86c0,0-2.66,2.66-6.74,1.8c-4.08-0.85-6.55-2.66-6.74-5.79c-0.19-3.13,0.86-4.37,0.86-4.37
	s4.56,1.43,6.74,3.33C37.66,40.73,39.27,43.77,41.36,43.86L41.36,43.86z"/>
<path class="iconGrung05" d="M38.14,42.91c0,0-2.31,1.05-4.88,0.2c-3.37-1.13-3.6-4.64-3.6-4.64s-2.07,6.08,3.73,7.25
	c4.66,0.94,7.41-1.76,7.41-1.76L38.14,42.91L38.14,42.91z"/>
<path d="M39.78,12.1c-0.25-5.21,4.02-9.36,5.5-9.54c0.08,0.88-0.08,4.33,1.4,5.39c0.43-2.81,1.89-5.91,7.64-7.95
	c-1.23,3.27-0.16,6,0.34,7.27c3.93-3.57,6.57-2.98,6.57-2.98s-2.73,4.71-1.66,7.8C51.7,11.48,39.82,12.93,39.78,12.1L39.78,12.1z
	 M23.07,20.04c-1.88-1.56-0.48-3.01-0.63-4.78c-0.08-0.94-0.16-1.83-0.47-2.33c-1.73-2.73-5.82-3.56-5.86-3.57L14.2,8.98l1.27-1.48
	c0.16-0.19,5.38-5.16,13.44-2.56c5.64,1.82,9.82,7.99,9.97,8.24l-2.83,1.33c-0.03-0.05-3.33-5.85-8.17-7.41
	c-3.91-1.26-7.52-0.06-9.06,0.73c1.64,0.66,3.79,1.85,5.08,3.89c0.61,0.96,0.71,2.18,0.81,3.35c0.13,1.56,0.25,3.03,1.4,3.98
	L23.07,20.04z M18.04,42.82c0,0,2.37-2.94,3.07-8.66c0.28-2.25-0.21-6.7-1-8.41c0.14,4.2-0.93,8.41-0.93,8.41
	S18.47,41.97,18.04,42.82L18.04,42.82z"/>
<path d="M30.54,17.07c0-0.01-0.76-3.32-2.87-5c-2.97-2.36-6.6-1.11-6.63-1.09l-0.53-1.63c0.18-0.06,4.32-1.36,8.14,1.32
	c3.84,2.7,4.3,5.15,4.34,5.42L30.54,17.07L30.54,17.07z M25.49,40.71c0,0-1.24-1.78-1.02-3.74c0.11-0.97,0.56-1.96,1.36-2.31
	c1.49-0.65,2.15,1.03,2.15,1.03S25.88,36.21,25.49,40.71L25.49,40.71z"/>
<path d="M39.14,43.43c0.05,0.1,0.08,0.15,0.08,0.15s-3.88,2.91-7.85-0.04c-2.13-1.58-1.93-5.5-1.28-7.16
	c1.7,0.38,3.13,1.08,4.33,1.89c-1.52-1.36-2.85-2.35-2.84-2.38l-1.73-0.49l-3.36-1.15c-0.04,0.26-1.27,5.99,2.27,9.9
	c1.57,1.73,8.91,5.61,12.39-1.02L39.14,43.43L39.14,43.43z"/>
<path d="M38.78,43.85c2.18,3.32,7.69,1.42,7.6-2.09c0,0-3.68,2.03-6.93-1.71c-1.9-2.18-7.98-8.21-16.24-6.21
	C28.9,35.1,36.45,40.31,38.78,43.85L38.78,43.85z"/>
<path d="M22.43,53.24c0.53,0.3,2.38,2.22,2.38,5.09c0,1.44-0.14,8.67-0.86,13.09c1.07,0.7,1.82,0.84,2.88,1.55
	c0.53-5.12,0.92-12.53,0.74-15.52c-0.2-3.41-2.03-5.7-3.73-6.68c-0.53-0.31-1.08-0.61-1.64-0.91c-2.9-1.57-5.9-3.19-5.9-5.96
	c0-2.17,0.84-2.84,1.73-3.56l0.1-0.08c0.59-0.48,1.26-1.02,1.66-1.91c1.08-2.43,1.26-8.63,0-10.21c-0.63-0.78-2.31-3.42-1.83-5.19
	c0.18-0.68,0.61-1.18,1.3-1.53c0.73-0.38,1.73-0.57,2.95-0.57c2.4,0,5.06,0.73,6.43,1.16c4.9,1.55,10.82,6.03,12.51,7.37
	c0.05,0.04,0.08,0.06,0.08,0.06l1.08,0.75l-0.68-1.14c-0.04-0.07-4.34-7.14-12.02-9.73c-1.49-0.5-4.43-1.35-7.32-1.35
	c-1.72,0-3.18,0.3-4.33,0.89c-1.41,0.72-2.36,1.87-2.76,3.32c-0.97,3.56,2.19,7.52,2.3,7.65c0.37,0.66,0.52,5.43-0.33,7.35
	c-0.12,0.26-0.44,0.52-0.84,0.85c-0.13,0.1-0.27,0.21-0.42,0.32c-1.2,0.91-3.02,2.28-3.02,5.43c0,4.32,4.38,6.66,7.89,8.54
	C21.39,52.65,21.94,52.95,22.43,53.24z"/>
<path d="M23.07,20.04c-1.88-1.56-0.48-3.01-0.63-4.78c-0.08-0.94-0.16-1.83-0.47-2.33c-1.73-2.73-5.82-3.56-5.86-3.57L14.2,8.98
	l1.27-1.48c0.16-0.19,5.38-5.16,13.44-2.56c5.64,1.82,9.82,7.99,9.97,8.24l-2.83,1.33c-0.03-0.05-3.33-5.85-8.17-7.41
	c-3.91-1.26-7.52-0.06-9.06,0.73c1.64,0.66,3.79,1.85,5.08,3.89c0.61,0.96,0.71,2.18,0.81,3.35c0.13,1.56,0.25,3.03,1.4,3.98
	L23.07,20.04z"/>
<path d="M23.01,20.36l-0.12-0.1c-1.4-1.16-1.15-2.3-0.91-3.4c0.11-0.51,0.22-1.04,0.18-1.58c-0.08-0.91-0.15-1.76-0.42-2.2
	c-1.65-2.6-5.63-3.44-5.67-3.45l-2.39-0.47l1.59-1.86c0.03-0.03,3.38-3.41,9.04-3.41c1.55,0,3.13,0.26,4.7,0.77
	c5.89,1.9,10.09,8.3,10.13,8.36l0.17,0.27l-3.35,1.57l-0.13-0.21c-0.36-0.61-3.53-5.85-8.02-7.29c-1.1-0.36-2.26-0.54-3.45-0.54
	c-2.15,0-3.89,0.59-4.82,0.98c1.55,0.7,3.43,1.87,4.62,3.75c0.65,1.02,0.75,2.27,0.85,3.48c0.13,1.5,0.24,2.91,1.3,3.79l0.4,0.33
	L23.01,20.36L23.01,20.36z"/>
<path d="M30.54,17.07c0-0.01-0.76-3.32-2.87-5c-2.97-2.36-6.6-1.11-6.63-1.09l-0.53-1.63c0.18-0.06,4.32-1.36,8.14,1.32
	c3.84,2.7,4.3,5.15,4.34,5.42L30.54,17.07L30.54,17.07z"/>
<path d="M30.34,17.45l-0.07-0.33c-0.01-0.03-0.75-3.24-2.77-4.84c-1.15-0.91-2.53-1.38-4.11-1.38c-1.23,0-2.15,0.29-2.25,0.33
	l-0.27,0.09l-0.71-2.17l0.27-0.09c0.12-0.04,1.22-0.38,2.78-0.38c2.05,0,3.99,0.6,5.62,1.74c3.94,2.77,4.42,5.33,4.46,5.61
	l0.03,0.22L30.34,17.45L30.34,17.45z M23.39,10.34c1.69,0,3.23,0.52,4.47,1.5c1.79,1.42,2.63,3.94,2.88,4.84l1.94-0.77
	c-0.18-0.68-0.95-2.74-4.18-5.01c-1.55-1.09-3.32-1.64-5.29-1.64c-1.08,0-1.91,0.17-2.33,0.28l0.35,1.08
	C21.63,10.51,22.41,10.34,23.39,10.34z M40.93,88.21c-0.84,0-1.7-0.31-2.3-0.82c-0.46-0.39-2-1.81-2.68-3.54
	c-0.25-0.65-0.2-1.17,0.17-1.54c0.25-0.26,0.78-0.56,1.85-0.56l0.76,0c0.91,0,2.43,0,3.74,0h1.25c0.81,0,1.4,0.18,1.73,0.52
	c0.43,0.44,0.29,1,0.17,1.3c-0.21,0.52-1.08,2.21-2.54,3.78C42.56,87.9,41.8,88.21,40.93,88.21L40.93,88.21z M41.82,44.05l-3.04-0.2
	c0,0,0.78,1.37,1.28,3.14c0.57,2-0.52,4.93-0.52,4.93S43.59,47.34,41.82,44.05z M38.02,96.23C27.21,95.4,23.4,85.18,23.4,83.05
	l2.83,0l-1.41,0h1.41c0.01,0.92,2.89,9.66,12.02,10.37L38.02,96.23L38.02,96.23z"/>
<path class="iconGrung04" d="M34.98,77.92c-0.17-0.98-0.19-1.9,0.02-2.81c-0.82-0.62-2.3-0.85-3.4-1.21c-0.91-0.57-5.54,0.59-8.9-3.48
	c-4.21-5.09-3.32-8.13-3.32-8.13c-1.08,1.2-2.13,0.74-3.77,6.33c-1.65,5.59,0.77,9.49,5.29,13.41c2.13,1.85,5.15,2.61,7.74,2.9
	c-0.87-0.87,1.48-0.96,3.1-1.57c-0.13-1.31,0.09-2.58,1.06-3.6c0.59-0.62,1.35-0.99,2.13-1.28c0.04-0.1,0.08-0.2,0.12-0.29
	C35.02,78.1,35,78.01,34.98,77.92z"/>
<path class="iconGrung05" d="M31.71,83.33c-0.09-0.27-0.16-0.55-0.23-0.84c-0.07-0.31-0.45-1.18,0.01-0.18c-0.12-0.26-0.2-0.52-0.25-0.78
	c-7.31-0.01-13.67-5.03-12.44-15.58c-0.96-1.27-2.3,2.56-2.3,2.56s-3.66,10.62,5.79,14.74c3.15,1.37,5.93,2.36,6.59,1.96
	c1.37,0.28,2.6-0.68,3.06-1.3C31.86,83.72,31.78,83.53,31.71,83.33L31.71,83.33z"/>
<path d="M34.85,76.39c0.01-0.89,0.19-1.75,0.62-2.61c0.03-0.06,0.06-0.12,0.1-0.17c-2.81-0.02-6.05-0.29-8.81-1.4
	c-3.03-1.21-6.82-5.36-7.48-10.24c0,0-5.71,4.41-4.03,13.84c1.57,8.85,8.98,11.74,17.43,12.23c0-0.06-0.95-2.03-0.65-3.24
	c-4.8,0.35-10.16-1.51-12.75-5.77c-2.37-3.9-1.71-10.56-0.73-11.54C20.93,74.99,29.49,76.52,34.85,76.39z"/>
<path d="M35.74,71.02c-1.52,4.46-4.63,8.07-4.63,8.07s4.27-0.19,4.51-0.95c0.17-0.56,3.86-9.18,5.27-19.28
	C39.56,61.04,35.87,70.64,35.74,71.02L35.74,71.02z"/>
<path class="iconGrung02" d="M59.94,60.73c0,0,4.84,7.41,8.4,12.66c0.55,0.81-3.55,0.87-3.55,0.87L59.94,60.73L59.94,60.73z M57.64,45.37
	c0,0,1.46,3.64,2.26,5.57c0.87,2.1,4.18,3.14,4.18,3.14s-1.72-1.8-1.72-6.36c0-1.91-2.47-2.67-2.47-2.67L57.64,45.37L57.64,45.37z"
	/>
<path class="iconGrung02" d="M59.11,47.43c0,0,2.99,3.56,8.55,1.57c5.56-1.99,6.13-9.12,6.13-11.11s-10.54,1.99-11.97,2.85
	C60.39,41.59,57.69,45.01,59.11,47.43L59.11,47.43z M80.1,9.37c0,0-5.13-1-8.55,1.71c-3.42,2.71-4.42,4.84-4.42,4.84l5.76,4.57
	c0,0,2.79-1.29,3.64-5C77.39,11.79,76.82,10.09,80.1,9.37L80.1,9.37z"/>
<path class="iconGrung02" d="M60.61,37.14c2.21-3.13,5.85-4.5,8.75-4.73c4.95-0.39,7.31,1.36,7.31,1.36s-8.11,0.34-10.45,3.41
	c-4.35,5.72-10.7,6.18-11.72,4.93c1.17,0.06,2.47-0.52,3.85-1.83C59.21,39.47,59.91,38.14,60.61,37.14z M74.3,48.23
	c0,0,9-3.09,7.29-6.23c-1.71-3.13-0.35-4.84-0.35-4.84s5.03,3.75,3.75,7.74c-0.79,2.45-2.11,4.22-9.36,7.62
	c-3.48,6.46-0.72,18.09-0.88,18.14c-0.28,0.09-4.88-2.28-4.57-13.16C70.28,54.16,70.54,49.6,74.3,48.23z M62.51,14.95
	c3.77,1.92,8.95,4.59,8.95,4.59l-2.03,1.02c0.19,0.31,0.29,0.5,0.29,0.5l-2.09,0.95c0,0-5.1,3.69-8.22,6.07
	c1.04-3.21,4.1-8.25,4.1-8.25S64.36,17.51,62.51,14.95z M49.97,93.12c11.6,0,15.53-5.89,15.53-5.89l-1.81,4.42
	c-0.69,1.91-8,7.85-13.7,7.85"/>
<path class="iconGrung02" d="M64.23,83.25c0,0-1.07,6.52-5.34,6.52c-3.63,0-4.7-5.51-4.7-6.65L64.23,83.25z M71.34,73.41
	c-0.38-1.05-1.71-5.27-2.14-9.12c-0.51-4.61-0.32-11.34-0.32-11.34s1.14,4.42,2.14,5.13c1,0.71,2.85,5.56,2.85,5.56
	s0.99,7.21,1.46,9.63C74.02,73.53,72.92,72.76,71.34,73.41L71.34,73.41z M81.66,44.83c0,0-2.42-0.86-3.13-6.13
	c-0.71-5.27,0.86-9.83,0.86-9.83s-0.14,7.27,0.71,8.69c0.86,1.42,1.57,1.85,2.56,3.7C83.66,43.12,82.23,44.26,81.66,44.83z"/>
<path class="iconGrung03" d="M78.77,10.62l0.5-0.31C80.72,10.36,78.77,10.62,78.77,10.62z"/>
<path class="iconGrung01" d="M60.54,13.39c0,0,2.28-0.38,3.42-2.09c1.14-1.71,4.37-5.13,9.52-5.17C78.62,6.09,83.71,7.5,83.71,7.5
	l-4.45,2.81c-0.47-0.02-1.29-0.01-2.65,0.04c-5.58,0.19-6.44,5.7-6.44,5.7l-19.66-2.71"/>
<path class="iconGrung04" d="M58.64,43.86c0,0,2.66,2.66,6.74,1.8c4.08-0.85,6.55-2.66,6.74-5.79c0.19-3.13-0.85-4.37-0.85-4.37
	s-4.56,1.43-6.74,3.33C62.34,40.73,60.73,43.77,58.64,43.86z"/>
<path class="iconGrung05" d="M61.86,42.91c0,0,2.31,1.05,4.88,0.2c3.38-1.13,3.6-4.64,3.6-4.64s2.07,6.08-3.74,7.25
	c-4.65,0.94-7.41-1.76-7.41-1.76L61.86,42.91L61.86,42.91z"/>
<path d="M76.93,20.04c1.88-1.56,0.48-3.01,0.63-4.78c0.08-0.94,0.15-1.83,0.47-2.33c1.73-2.73,5.82-3.56,5.86-3.57l1.92-0.38
	l-1.27-1.48c-0.16-0.19-5.38-5.16-13.44-2.56c-5.64,1.82-9.82,7.99-9.97,8.24l2.83,1.33c0.03-0.05,3.34-5.85,8.18-7.41
	c3.91-1.26,7.52-0.06,9.06,0.73c-1.64,0.66-3.79,1.85-5.08,3.89c-0.61,0.96-0.71,2.18-0.81,3.35c-0.13,1.56-0.25,3.03-1.4,3.98
	L76.93,20.04L76.93,20.04z M81.96,42.82c0,0-2.37-2.94-3.07-8.66c-0.28-2.25,0.21-6.7,1-8.41c-0.14,4.2,0.93,8.41,0.93,8.41
	S81.53,41.97,81.96,42.82z"/>
<path d="M69.46,17.07c0-0.01,0.76-3.32,2.87-5c2.97-2.36,6.6-1.11,6.63-1.09l0.53-1.63c-0.18-0.06-4.32-1.36-8.14,1.32
	c-3.84,2.7-4.3,5.15-4.34,5.42L69.46,17.07z M74.51,40.71c0,0,1.24-1.78,1.02-3.74c-0.11-0.97-0.56-1.96-1.36-2.31
	c-1.49-0.65-2.15,1.03-2.15,1.03S74.12,36.21,74.51,40.71L74.51,40.71z"/>
<path d="M60.86,43.43c-0.05,0.1-0.08,0.15-0.08,0.15s3.88,2.91,7.85-0.04c2.13-1.58,1.93-5.5,1.28-7.16
	c-1.69,0.38-3.13,1.08-4.33,1.89c1.52-1.36,2.85-2.35,2.84-2.38l1.73-0.49l3.35-1.15c0.04,0.26,1.27,5.99-2.27,9.9
	c-1.57,1.73-8.91,5.61-12.39-1.02L60.86,43.43L60.86,43.43z"/>
<path d="M61.22,43.85c-2.18,3.32-7.69,1.42-7.6-2.09c0,0,3.68,2.03,6.93-1.71c1.9-2.18,7.99-8.21,16.24-6.21
	C71.1,35.1,63.55,40.31,61.22,43.85L61.22,43.85z"/>
<path d="M77.57,53.24c-0.53,0.3-2.38,2.22-2.38,5.09c0,1.44,0.14,8.67,0.86,13.09c-1.07,0.7-1.82,0.84-2.88,1.55
	c-0.53-5.12-0.92-12.53-0.74-15.52c0.2-3.41,2.03-5.7,3.72-6.68c0.53-0.31,1.09-0.61,1.64-0.91c2.9-1.57,5.9-3.19,5.9-5.96
	c0-2.17-0.84-2.84-1.73-3.56l-0.1-0.08c-0.59-0.48-1.26-1.02-1.66-1.91c-1.08-2.43-1.26-8.63,0-10.21c0.63-0.78,2.31-3.42,1.83-5.19
	c-0.19-0.68-0.61-1.18-1.3-1.53c-0.73-0.38-1.72-0.57-2.95-0.57c-2.4,0-5.06,0.73-6.43,1.16c-4.9,1.55-10.82,6.03-12.51,7.37
	c-0.05,0.04-0.08,0.06-0.08,0.06l-1.09,0.75l0.68-1.14c0.04-0.07,4.34-7.14,12.02-9.73c1.49-0.5,4.43-1.35,7.32-1.35
	c1.72,0,3.17,0.3,4.33,0.89c1.41,0.72,2.36,1.87,2.76,3.32c0.97,3.56-2.19,7.52-2.3,7.65c-0.37,0.66-0.52,5.43,0.33,7.35
	c0.12,0.26,0.44,0.52,0.85,0.85c0.13,0.1,0.27,0.21,0.42,0.32c1.2,0.91,3.02,2.28,3.02,5.43c0,4.32-4.38,6.66-7.89,8.54
	C78.62,52.65,78.06,52.95,77.57,53.24L77.57,53.24z"/>
<path d="M72.35,19.53c-0.7-1.18-2.48-3.46-6.58-5.46c-4.58-2.23-9.88-3.36-15.75-3.37v0h-0.02v0c-5.88,0-11.18,1.14-15.76,3.37
	c-4.1,2-5.88,4.28-6.58,5.46l-0.3,0.4l3.51,0.78l0.11-0.14l0.06-0.13c0.05-0.23,0.53-1.49,4.44-3.4C39.67,15,44.55,13.96,50,13.96
	c5.45,0,10.33,1.04,14.52,3.08c3.92,1.91,4.39,3.16,4.44,3.4l0.06,0.13l0.11,0.14l3.51-0.78L72.35,19.53L72.35,19.53z"/>
<path d="M76.93,20.04c1.88-1.56,0.48-3.01,0.63-4.78c0.08-0.94,0.15-1.83,0.47-2.33c1.73-2.73,5.82-3.56,5.86-3.57l1.92-0.38
	l-1.27-1.48c-0.16-0.19-5.38-5.16-13.44-2.56c-5.64,1.82-9.82,7.99-9.97,8.24l2.83,1.33c0.03-0.05,3.34-5.85,8.18-7.41
	c3.91-1.26,7.52-0.06,9.06,0.73c-1.64,0.66-3.79,1.85-5.08,3.89c-0.61,0.96-0.71,2.18-0.81,3.35c-0.13,1.56-0.25,3.03-1.4,3.98
	L76.93,20.04L76.93,20.04z"/>
<path d="M73.31,19.15l0.4-0.33c1.05-0.87,1.17-2.29,1.3-3.79c0.1-1.21,0.21-2.46,0.85-3.48c1.19-1.88,3.07-3.05,4.62-3.75
	c-0.93-0.39-2.67-0.98-4.82-0.98c-1.19,0-2.35,0.18-3.45,0.54c-4.49,1.45-7.66,6.68-8.02,7.29l-0.13,0.21l-3.35-1.57l0.17-0.27
	c0.04-0.06,4.24-6.46,10.13-8.36c1.57-0.51,3.16-0.77,4.7-0.77c5.67,0,9.01,3.38,9.04,3.41l1.59,1.86l-2.39,0.47
	c-0.04,0.01-4.02,0.84-5.67,3.45c-0.27,0.43-0.35,1.29-0.42,2.2c-0.05,0.54,0.07,1.07,0.18,1.58c0.24,1.1,0.49,2.25-0.91,3.4
	L77,20.36L73.31,19.15L73.31,19.15z"/>
<path d="M69.46,17.07c0-0.01,0.76-3.32,2.87-5c2.97-2.36,6.6-1.11,6.63-1.09l0.53-1.63c-0.18-0.06-4.32-1.36-8.14,1.32
	c-3.84,2.7-4.3,5.15-4.34,5.42L69.46,17.07z"/>
<path d="M66.68,16.27l0.03-0.22c0.04-0.28,0.52-2.84,4.46-5.61c1.62-1.14,3.56-1.74,5.61-1.74c1.56,0,2.66,0.34,2.78,0.38l0.27,0.09
	l-0.71,2.17l-0.27-0.09c-0.1-0.03-1.02-0.33-2.25-0.33c-1.58,0-2.96,0.46-4.11,1.38c-2.01,1.6-2.76,4.81-2.77,4.84l-0.07,0.33
	L66.68,16.27L66.68,16.27z M78.77,10.62l0.35-1.08c-0.41-0.1-1.25-0.28-2.33-0.28c-1.96,0-3.74,0.55-5.29,1.64
	c-3.23,2.27-4,4.32-4.18,5.01l1.94,0.77c0.25-0.9,1.09-3.42,2.88-4.84c1.23-0.98,2.78-1.5,4.47-1.5
	C77.58,10.34,78.37,10.51,78.77,10.62L78.77,10.62z M56.91,87.33c-1.47-1.57-2.34-3.26-2.55-3.78c-0.12-0.3-0.26-0.86,0.17-1.3
	c0.34-0.34,0.92-0.52,1.73-0.52h1.25c1.3,0,2.83,0,3.74,0l0.76,0c1.07,0,1.59,0.31,1.85,0.56c0.37,0.37,0.43,0.89,0.17,1.54
	c-0.68,1.73-2.22,3.15-2.68,3.54c-0.6,0.52-1.45,0.82-2.3,0.82C58.2,88.21,57.44,87.9,56.91,87.33L56.91,87.33z M58.18,44.05
	l3.04-0.2c0,0-0.78,1.37-1.28,3.14c-0.57,2,0.52,4.93,0.52,4.93S56.41,47.34,58.18,44.05z"/>
<path class="iconGrung02" d="M50,33.2c-1.94,0-4.46-0.05-6.36-1.42c0,0,2.48,4.35,6.35,4.35l0-0.55l0,0.55c3.87,0,6.35-4.35,6.35-4.35
	C54.46,33.14,51.94,33.2,50,33.2z"/>
<path d="M55.33,33.18c-1.94,1.18-3.68,1.58-5.33,1.62c-1.66-0.04-3.39-0.44-5.33-1.62c0,0,2.83,3.45,5.32,3.48v0c0,0,0.01,0,0.01,0
	c0,0,0.01,0,0.01,0v0C52.5,36.63,55.33,33.18,55.33,33.18z M61.98,96.23l-0.22-2.82c9.12-0.7,12-9.45,12.01-10.37h2.83
	C76.6,85.18,72.79,95.4,61.98,96.23z"/>
<path class="iconGrung04" d="M65.02,77.92c0.17-0.98,0.19-1.9-0.02-2.81c0.82-0.62,2.3-0.85,3.4-1.21c0.91-0.57,5.54,0.59,8.9-3.48
	c4.21-5.09,3.32-8.13,3.32-8.13c1.08,1.2,2.13,0.74,3.77,6.33c1.65,5.59-0.77,9.49-5.29,13.41c-2.13,1.85-5.15,2.61-7.74,2.9
	c0.87-0.87-1.48-0.96-3.1-1.57c0.13-1.31-0.09-2.58-1.06-3.6c-0.59-0.62-1.35-0.99-2.13-1.28c-0.04-0.1-0.08-0.2-0.12-0.29
	C64.98,78.1,65,78.01,65.02,77.92L65.02,77.92z"/>
<path class="iconGrung05" d="M68.29,83.33c0.1-0.27,0.16-0.55,0.23-0.84c0.08-0.31,0.45-1.18-0.01-0.18c0.12-0.26,0.2-0.52,0.25-0.78
	c7.31-0.01,13.67-5.03,12.44-15.58c0.96-1.27,2.3,2.56,2.3,2.56s3.66,10.62-5.79,14.74c-3.15,1.37-5.93,2.36-6.59,1.96
	c-1.37,0.28-2.6-0.68-3.07-1.3C68.14,83.72,68.22,83.53,68.29,83.33L68.29,83.33z"/>
<path d="M65.15,76.39c-0.01-0.89-0.19-1.75-0.62-2.61c-0.03-0.06-0.07-0.12-0.1-0.17c2.81-0.02,6.05-0.29,8.81-1.4
	c3.03-1.21,6.82-5.36,7.48-10.24c0,0,5.71,4.41,4.03,13.84c-1.58,8.85-8.98,11.74-17.43,12.23c0-0.06,0.95-2.03,0.65-3.24
	c4.8,0.35,10.16-1.51,12.75-5.77c2.37-3.9,1.71-10.56,0.73-11.54C79.07,74.99,70.51,76.52,65.15,76.39L65.15,76.39z"/>
<path d="M68.56,78.61c-1.01-1.09-2.87-2.39-7.15-2.39l-11.4-0.01h-0.03c-3.29,0-11.4,0.01-11.4,0.01c-4.28,0-6.14,1.3-7.15,2.39
	c-1.47,1.59-1.7,3.8-0.68,6.56c2.7,7.35,6.51,14.82,19.23,14.83v0c0,0,0.01,0,0.01,0c0,0,0.01,0,0.01,0v0
	c12.72-0.01,16.52-7.48,19.23-14.83C70.26,82.41,70.03,80.2,68.56,78.61L68.56,78.61z M66.58,84.65
	C65.29,88.34,61.83,97.28,50,97.29c-11.83-0.02-15.29-8.95-16.58-12.64c-0.71-2.05-0.66-3.56,0.17-4.51
	c0.56-0.64,1.86-1.41,4.81-1.41l3.08,0c2.28,0,5.13,0,8.52-0.01c3.38,0,6.24,0,8.52,0.01l3.08,0c2.95,0,4.25,0.77,4.81,1.41
	C67.24,81.09,67.29,82.6,66.58,84.65L66.58,84.65z"/>
<path d="M64.26,71.02c1.52,4.46,4.63,8.07,4.63,8.07s-4.27-0.19-4.51-0.95c-0.17-0.56-3.86-9.18-5.27-19.28
	C60.44,61.04,64.13,70.64,64.26,71.02L64.26,71.02z"/>
</svg>
