<?xml version="1.0" encoding="utf-8"?>
<!-- Generator: Adobe Illustrator 24.3.0, SVG Export Plug-In . SVG Version: 6.00 Build 0)  -->
<svg version="1.1" id="Layer_1" xmlns="http://www.w3.org/2000/svg" xmlns:xlink="http://www.w3.org/1999/xlink" x="0px" y="0px"
	 viewBox="0 0 100 100" style="enable-background:new 0 0 100 100;" xml:space="preserve">
<style type="text/css">
	.iconHtml01{fill:#8D9092;}
	.iconHtml02{fill:#9B9DA0;}
	.iconHtml03{fill:#EBEBEC;}
	.iconHtml04{fill:#FFFFFF;}
</style>
<path d="M21.17,0h4.49v4.45h4.14V0h4.49v13.48H29.8V8.98h-4.1v4.49h-4.53 M40.23,4.49h-3.96V0h12.44v4.49h-3.98v8.98h-4.49 M50.68,0
	h4.71l2.89,4.75L61.17,0h4.71v13.48h-4.49V6.8l-3.14,4.84L55.1,6.8v6.68h-4.41 M68.11,0h4.49v9.02h6.37v4.45H68.11"/>
<path class="iconHtml01" d="M21.02,91.99l-6.45-72.34h70.86l-6.45,72.3L49.94,100"/>
<path class="iconHtml02" d="M50,93.85V25.59h28.96L73.44,87.3"/>
<path class="iconHtml03" d="M27.73,34.43H50v8.87H37.46l0.82,9.08H50v8.85H30.16 M30.55,65.68h8.91l0.62,7.09L50,75.43v9.26l-18.2-5.08"/>
<path class="iconHtml04" d="M72.19,34.43H49.96v8.87h21.41 M70.57,52.38H49.96v8.87H60.9l-1.04,11.52l-9.9,2.66v9.22l18.16-5.04"/>
</svg>
