<?xml version="1.0" encoding="utf-8"?>
<!-- Generator: Adobe Illustrator 24.3.0, SVG Export Plug-In . SVG Version: 6.00 Build 0)  -->
<svg version="1.1" id="Layer_1" xmlns="http://www.w3.org/2000/svg" xmlns:xlink="http://www.w3.org/1999/xlink" x="0px" y="0px"
	 viewBox="0 0 100 100" style="enable-background:new 0 0 100 100;" xml:space="preserve">
<style type="text/css">
	.iconJs01{fill:#363636;}
</style>
<rect  width="100" height="100"/>
<path  class="iconJs01" d="M67.17,78.13c2.01,3.29,4.63,5.71,9.27,5.71c3.89,0,6.38-1.95,6.38-4.63c0-3.22-2.56-4.36-6.84-6.24l-2.35-1.01
	c-6.78-2.89-11.29-6.51-11.29-14.16c0-7.05,5.37-12.41,13.76-12.41c5.97,0,10.27,2.08,13.37,7.52l-7.32,4.7
	c-1.61-2.89-3.35-4.03-6.05-4.03c-2.75,0-4.5,1.75-4.5,4.03c0,2.82,1.75,3.96,5.78,5.71l2.35,1.01c7.98,3.42,12.49,6.91,12.49,14.76
	c0,8.46-6.65,13.1-15.57,13.1c-8.73,0-14.37-4.16-17.12-9.61L67.17,78.13z M33.98,78.94c1.48,2.62,2.82,4.83,6.05,4.83
	c3.09,0,5.03-1.21,5.03-5.9V45.92h9.4V78c0,9.73-5.7,14.16-14.03,14.16c-7.52,0-11.88-3.89-14.1-8.58L33.98,78.94z"/>
</svg>
