<?xml version="1.0" encoding="utf-8"?>
<!-- Generator: Adobe Illustrator 24.3.0, SVG Export Plug-In . SVG Version: 6.00 Build 0)  -->
<svg version="1.1" id="Layer_1" xmlns="http://www.w3.org/2000/svg" xmlns:xlink="http://www.w3.org/1999/xlink" x="0px" y="0px"
	 viewBox="0 0 100 100" style="enable-background:new 0 0 100 100;" xml:space="preserve">

<path  d="M72.45,34.7l-0.04-0.02c-0.02-0.01-0.04-0.02-0.06-0.03c-0.06-0.07-0.09-0.15-0.07-0.24l2.02-12.33l9.45,9.46
	l-9.83,4.18c-0.03,0.01-0.06,0.02-0.09,0.02h-0.04c-0.01-0.01-0.03-0.02-0.05-0.04C73.37,35.29,72.94,34.95,72.45,34.7z
	 M86.16,33.95l10.11,10.11c2.1,2.1,3.15,3.15,3.53,4.37c0.06,0.18,0.1,0.36,0.14,0.55L75.79,38.74c-0.01-0.01-0.03-0.01-0.04-0.02
	c-0.1-0.04-0.21-0.08-0.21-0.18s0.11-0.15,0.21-0.19l0.03-0.01C75.78,38.34,86.16,33.95,86.16,33.95z M99.53,52.22
	c-0.52,0.98-1.54,2-3.26,3.72l-11.4,11.39l-14.74-3.07l-0.08-0.02c-0.13-0.02-0.27-0.04-0.27-0.16c-0.11-1.23-0.73-2.36-1.71-3.11
	c-0.06-0.06-0.04-0.15-0.03-0.24c0-0.01,0-0.03,0.01-0.04l2.77-17.02l0.01-0.06c0.02-0.13,0.04-0.28,0.16-0.28
	c1.2-0.15,2.29-0.77,3.03-1.73c0.02-0.03,0.04-0.05,0.07-0.07c0.08-0.04,0.18,0,0.27,0.04L99.53,52.22L99.53,52.22z M82.25,69.95
	L63.51,88.69l3.21-19.72l0.01-0.03c0-0.03,0.01-0.05,0.02-0.08c0.03-0.06,0.09-0.09,0.16-0.11l0.03-0.01
	c0.7-0.3,1.32-0.76,1.81-1.35c0.06-0.07,0.14-0.14,0.23-0.16c0.03,0,0.05,0,0.08,0L82.25,69.95L82.25,69.95z M59.55,92.66
	l-2.11,2.11L34.08,61.02c-0.01-0.01-0.02-0.02-0.03-0.04c-0.04-0.05-0.08-0.1-0.07-0.16c0-0.04,0.03-0.08,0.06-0.11l0.03-0.03
	c0.07-0.1,0.13-0.21,0.2-0.32l0.05-0.09l0.01-0.01c0.04-0.06,0.07-0.12,0.13-0.16c0.05-0.03,0.13-0.02,0.19,0l25.87,5.34
	c0.07,0.01,0.14,0.04,0.2,0.09c0.03,0.03,0.04,0.07,0.05,0.11c0.37,1.38,1.36,2.52,2.68,3.06c0.07,0.04,0.04,0.12,0.01,0.2
	c-0.02,0.04-0.03,0.08-0.04,0.12C63.09,71.01,60.3,88.06,59.55,92.66z M55.13,97.07c-1.56,1.54-2.48,2.36-3.51,2.69
	c-1.02,0.32-2.12,0.32-3.15,0c-1.22-0.39-2.27-1.43-4.37-3.54L20.66,72.77l6.13-9.5c0.03-0.05,0.06-0.09,0.1-0.12
	c0.07-0.05,0.16-0.03,0.24,0c1.41,0.42,2.92,0.35,4.27-0.22c0.07-0.03,0.14-0.04,0.2,0.01c0.03,0.02,0.05,0.05,0.07,0.08
	L55.13,97.07L55.13,97.07z M18.39,70.51l-5.38-5.38l10.63-4.53c0.03-0.01,0.06-0.02,0.09-0.02c0.09,0,0.14,0.09,0.19,0.17
	c0.11,0.16,0.22,0.32,0.34,0.48l0.03,0.04c0.03,0.04,0.01,0.09-0.02,0.13L18.39,70.51L18.39,70.51z M10.63,62.74l-6.81-6.81
	c-1.16-1.16-2-2-2.58-2.72l20.7,4.29c0.03,0,0.05,0.01,0.08,0.01c0.13,0.02,0.27,0.04,0.27,0.16c0,0.13-0.15,0.19-0.28,0.24
	l-0.06,0.03C21.94,57.95,10.63,62.74,10.63,62.74z M0.05,49.72c0.02-0.44,0.1-0.87,0.23-1.29c0.39-1.22,1.43-2.26,3.54-4.37
	l8.71-8.71c4.01,5.82,8.03,11.63,12.06,17.44c0.07,0.09,0.15,0.2,0.07,0.28c-0.38,0.42-0.76,0.88-1.03,1.38
	c-0.03,0.06-0.07,0.12-0.13,0.16c-0.03,0.02-0.07,0.01-0.11,0.01h-0.01L0.05,49.72L0.05,49.72z M14.87,33.02l11.71-11.71
	c1.1,0.48,5.11,2.18,8.69,3.69c2.71,1.15,5.18,2.19,5.96,2.53c0.08,0.03,0.15,0.06,0.18,0.14c0.02,0.05,0.01,0.11,0,0.16
	c-0.38,1.72,0.14,3.51,1.36,4.77c0.08,0.08,0,0.19-0.07,0.29l-0.04,0.05L30.78,51.35c-0.03,0.05-0.06,0.1-0.11,0.13
	c-0.06,0.04-0.15,0.02-0.22,0c-0.46-0.12-0.94-0.19-1.42-0.19c-0.43,0-0.89,0.08-1.36,0.16h0c-0.05,0.01-0.1,0.02-0.14-0.01
	c-0.05-0.04-0.09-0.08-0.12-0.13C27.41,51.31,14.87,33.02,14.87,33.02z M28.95,18.94L44.11,3.78c2.1-2.1,3.15-3.15,4.37-3.53
	c1.02-0.32,2.12-0.32,3.15,0c1.22,0.38,2.27,1.43,4.37,3.53l3.29,3.29l-10.78,16.7c-0.03,0.05-0.06,0.09-0.11,0.13
	c-0.07,0.04-0.16,0.03-0.23,0c-1.73-0.52-3.6-0.16-5.01,0.96c-0.07,0.07-0.17,0.03-0.26-0.01C41.47,24.23,30.51,19.6,28.95,18.94z
	 M61.56,9.35l9.96,9.96l-2.4,14.86v0.04c0,0.03-0.01,0.07-0.02,0.1c-0.03,0.05-0.08,0.06-0.13,0.08c-0.51,0.16-1,0.4-1.43,0.71
	c-0.02,0.01-0.04,0.03-0.05,0.04c-0.03,0.03-0.06,0.06-0.1,0.07c-0.04,0-0.08-0.01-0.11-0.02L52.1,28.74l-0.03-0.01
	c-0.1-0.04-0.21-0.09-0.21-0.19c-0.09-0.85-0.37-1.66-0.81-2.39c-0.07-0.12-0.15-0.25-0.09-0.37C50.96,25.79,61.56,9.35,61.56,9.35z
	 M51.31,31.8l14.22,6.02c0.08,0.04,0.16,0.07,0.2,0.15c0.01,0.05,0.01,0.1,0,0.15c-0.04,0.21-0.08,0.45-0.08,0.69v0.4
	c0,0.1-0.1,0.14-0.2,0.18l-0.03,0.01c-2.25,0.96-31.64,13.49-31.68,13.49s-0.09,0-0.14-0.04c-0.08-0.08,0-0.19,0.07-0.29
	c0.01-0.02,0.02-0.03,0.04-0.05l11.69-18.1l0.02-0.03c0.07-0.11,0.15-0.23,0.27-0.23l0.12,0.02c0.27,0.04,0.5,0.07,0.74,0.07
	c1.77,0,3.42-0.86,4.41-2.34c0.02-0.04,0.05-0.07,0.09-0.1C51.12,31.73,51.23,31.76,51.31,31.8z M35.02,55.75l32.03-13.66
	c0,0,0.05,0,0.09,0.04c0.17,0.17,0.32,0.29,0.47,0.4l0.07,0.04c0.07,0.04,0.13,0.08,0.14,0.15c0,0.03,0,0.04-0.01,0.07l-2.74,16.85
	l-0.01,0.07C65.03,59.85,65.01,60,64.89,60c-1.49,0.1-2.82,0.93-3.58,2.21l-0.01,0.02c-0.04,0.06-0.07,0.12-0.13,0.15
	c-0.05,0.03-0.13,0.02-0.18,0l-25.54-5.27C35.42,57.1,35.05,55.75,35.02,55.75z"/>
</svg>
