<?xml version="1.0" encoding="utf-8"?>
<!-- Generator: Adobe Illustrator 24.3.0, SVG Export Plug-In . SVG Version: 6.00 Build 0)  -->
<svg version="1.1" id="Layer_1" xmlns="http://www.w3.org/2000/svg" xmlns:xlink="http://www.w3.org/1999/xlink" x="0px" y="0px"
	 viewBox="0 0 100 100" style="enable-background:new 0 0 100 100;" xml:space="preserve">
<g>
	<path d="M50,100c-1.38,0-2.66-0.37-3.86-1.01l-12.22-7.26c-1.84-1.01-0.92-1.38-0.37-1.56c2.48-0.83,2.94-1.01,5.51-2.48
		c0.28-0.18,0.64-0.09,0.92,0.09l9.37,5.6c0.37,0.18,0.83,0.18,1.1,0l36.66-21.22c0.37-0.18,0.55-0.55,0.55-1.01V28.8
		c0-0.46-0.18-0.83-0.55-1.01L50.46,6.66c-0.37-0.18-0.83-0.18-1.1,0L12.7,27.79c-0.37,0.18-0.55,0.64-0.55,1.01v42.35
		c0,0.37,0.18,0.83,0.55,1.01l10.01,5.79c5.42,2.76,8.82-0.46,8.82-3.67v-41.8c0-0.55,0.46-1.1,1.1-1.1h4.69
		c0.55,0,1.1,0.46,1.1,1.1v41.8c0,7.26-3.95,11.48-10.84,11.48c-2.11,0-3.77,0-8.45-2.3l-9.65-5.51C7.1,76.57,5.63,74,5.63,71.24
		V28.89c0-2.76,1.47-5.33,3.86-6.71L46.14,0.96c2.3-1.29,5.42-1.29,7.72,0l36.66,21.22c2.39,1.38,3.86,3.95,3.86,6.71v42.35
		c0,2.76-1.47,5.33-3.86,6.71L53.86,99.17C52.66,99.72,51.29,100,50,100L50,100z M61.3,70.88c-16.08,0-19.38-7.35-19.38-13.6
		c0-0.55,0.46-1.1,1.1-1.1h4.78c0.55,0,1.01,0.37,1.01,0.92c0.73,4.87,2.85,7.26,12.59,7.26c7.72,0,11.02-1.75,11.02-5.88
		c0-2.39-0.92-4.13-12.95-5.33C49.45,52.14,43.2,49.93,43.2,41.94c0-7.44,6.25-11.85,16.72-11.85c11.76,0,17.55,4.04,18.28,12.86
		c0,0.28-0.09,0.55-0.28,0.83c-0.18,0.18-0.46,0.37-0.73,0.37h-4.78c-0.46,0-0.92-0.37-1.01-0.83c-1.1-5.05-3.95-6.71-11.48-6.71
		c-8.45,0-9.46,2.94-9.46,5.14c0,2.66,1.19,3.49,12.59,4.96c11.3,1.47,16.63,3.58,16.63,11.48C79.58,66.28,72.97,70.88,61.3,70.88
		L61.3,70.88z"/>
</g>
</svg>
