<?xml version="1.0" encoding="utf-8"?>
<!-- Generator: Adobe Illustrator 24.1.2, SVG Export Plug-In . SVG Version: 6.00 Build 0)  -->
<svg version="1.1" id="Warstwa_1" xmlns="http://www.w3.org/2000/svg" xmlns:xlink="http://www.w3.org/1999/xlink" x="0px" y="0px"
	 viewBox="0 0 24 24" style="enable-background:new 0 0 24 24;" xml:space="preserve">
<g>
	<polyline points="6,23.9 18,23.9 18,21.9 6,21.9 	"/>
	<polyline points="0,20 24,20 24,18 0,18 	"/>
	<path d="M4,19.3v-9.2c0-2.3,0.9-4.5,2.1-5.6l0,0C7.9,2.8,10,2.1,12,2.1c2.1,0,4.2,0.8,6,2.6l0,0l0,0c1.2,1.1,2,3.2,2,5.5v9.2h2
		l0-9.2c0-2.7-0.9-5.3-2.6-6.9l0,0c-2.2-2.1-4.8-3.2-7.4-3.2c-2.5,0-5.1,1-7.2,3l0,0C3,4.7,2,7.3,2,10.1v9.2H4L4,19.3z"/>
</g>
</svg>
