<?xml version="1.0" encoding="utf-8"?>
<!-- Generator: Adobe Illustrator 24.3.0, SVG Export Plug-In . SVG Version: 6.00 Build 0)  -->
<svg version="1.1" id="Layer_1" xmlns="http://www.w3.org/2000/svg" xmlns:xlink="http://www.w3.org/1999/xlink" x="0px" y="0px"
	 viewBox="0 0 100 100" style="enable-background:new 0 0 100 100;" xml:space="preserve">
<style type="text/css">
	.iconNpm{fill:#FFFFFF;}
</style>
<path d="M0,30.56h100v33.33H50v5.56H27.78v-5.56H0V30.56z M5.56,58.33h11.11V41.67h5.56v16.67h5.56V36.11H5.56V58.33z M33.33,36.11
	v27.78h11.11v-5.56h11.11V36.11H33.33z M44.44,41.67H50v11.11h-5.56V41.67z M61.11,36.11v22.22h11.11V41.67h5.56v16.67h5.56V41.67
	h5.56v16.67h5.56V36.11H61.11z"/>
<polygon class="iconNpm" points="5.56,58.33 16.67,58.33 16.67,41.67 22.22,41.67 22.22,58.33 27.78,58.33 27.78,36.11 5.56,36.11 "/>
<path class="iconNpm" d="M33.33,36.11v27.78h11.11v-5.56h11.11V36.11H33.33z M50,52.78h-5.56V41.67H50V52.78z"/>
<polygon class="iconNpm" points="61.11,36.11 61.11,58.33 72.22,58.33 72.22,41.67 77.78,41.67 77.78,58.33 83.33,58.33 83.33,41.67 
	88.89,41.67 88.89,58.33 94.44,58.33 94.44,36.11 "/>
</svg>
