<?xml version="1.0" encoding="utf-8"?>
<!-- Generator: Adobe Illustrator 24.2.0, SVG Export Plug-In . SVG Version: 6.00 Build 0)  -->
<svg version="1.1" id="Warstwa_1" xmlns="http://www.w3.org/2000/svg" xmlns:xlink="http://www.w3.org/1999/xlink" x="0px" y="0px"
	 viewBox="0 0 24 24" style="enable-background:new 0 0 24 24;" xml:space="preserve">
<g id="XMLID_10_">
	<g>
		<path d="M24,16.95c0-1.4-0.42-2.76-1.22-3.92c-0.57-0.84-1.31-1.53-2.16-2.04c1.01-0.95,1.63-2.3,1.63-3.79
			c0-2.88-2.34-5.22-5.22-5.22c-1.71,0-3.31,0.84-4.28,2.23c-0.25-0.04-0.5-0.06-0.76-0.06s-0.51,0.02-0.76,0.06
			c-0.97-1.39-2.57-2.23-4.28-2.23c-2.88,0-5.22,2.34-5.22,5.22c0,1.49,0.63,2.84,1.63,3.79c-0.85,0.52-1.59,1.21-2.16,2.04
			C0.42,14.19,0,15.54,0,16.95v2.9h5.03v2.17h13.93v-2.17H24L24,16.95L24,16.95L24,16.95z M17.03,3.26c2.17,0,3.93,1.76,3.93,3.93
			s-1.76,3.93-3.93,3.93c-0.04,0-0.08,0-0.12,0c0-0.01,0.01-0.02,0.01-0.02c0.07-0.19,0.12-0.39,0.17-0.59
			c0-0.01,0.01-0.03,0.01-0.04c0.01-0.05,0.02-0.11,0.03-0.16c0-0.03,0.01-0.05,0.01-0.08c0.01-0.05,0.02-0.1,0.02-0.15
			c0-0.03,0.01-0.07,0.01-0.1c0.01-0.04,0.01-0.09,0.01-0.13c0-0.04,0.01-0.09,0.01-0.13c0-0.04,0.01-0.07,0.01-0.11
			c0-0.08,0.01-0.15,0.01-0.23c0-0.01,0-0.01,0-0.02c0,0,0-0.01,0-0.01c0-0.08,0-0.15-0.01-0.23c0-0.02,0-0.04,0-0.07
			c0-0.07-0.01-0.13-0.01-0.2c0-0.01,0-0.03,0-0.04c-0.19-1.88-1.38-3.49-3.1-4.24C14.83,3.75,15.9,3.26,17.03,3.26z M10.64,5.68
			c0.01,0,0.03-0.01,0.04-0.01c0.04-0.01,0.08-0.03,0.12-0.04c0.03-0.01,0.06-0.02,0.09-0.03c0.02-0.01,0.04-0.01,0.07-0.02
			c0.04-0.01,0.08-0.02,0.12-0.03c0.3-0.07,0.61-0.11,0.93-0.11c0.32,0,0.63,0.04,0.93,0.11c0.04,0.01,0.08,0.02,0.12,0.03
			c0.02,0.01,0.05,0.01,0.07,0.02c0.03,0.01,0.06,0.02,0.09,0.03c0.04,0.01,0.08,0.03,0.12,0.04c0.01,0,0.02,0.01,0.04,0.01
			c1.32,0.49,2.3,1.66,2.52,3.08c0,0.01,0,0.02,0.01,0.03c0.01,0.05,0.01,0.1,0.02,0.15c0,0.02,0,0.04,0.01,0.05
			c0,0.04,0.01,0.09,0.01,0.13c0,0.02,0,0.04,0,0.06c0,0.06,0,0.11,0,0.17c0,0.01,0,0.01,0,0.01c0,0,0,0,0,0.01
			c0,0.06,0,0.11,0,0.17c0,0.02,0,0.03,0,0.05c0,0.05-0.01,0.11-0.01,0.16c0,0.02,0,0.04-0.01,0.06c0,0.03-0.01,0.07-0.01,0.1
			c0,0.03-0.01,0.05-0.01,0.08c-0.01,0.04-0.01,0.08-0.02,0.12c-0.01,0.04-0.01,0.07-0.02,0.11c0,0.02-0.01,0.04-0.01,0.06
			c-0.01,0.05-0.03,0.1-0.04,0.16c-0.01,0.02-0.01,0.04-0.02,0.06c-0.01,0.03-0.02,0.06-0.03,0.09c-0.01,0.02-0.02,0.05-0.02,0.07
			c-0.01,0.03-0.02,0.05-0.03,0.08c-0.02,0.04-0.03,0.09-0.05,0.13c-0.01,0.02-0.02,0.04-0.03,0.06c-0.02,0.04-0.03,0.07-0.05,0.11
			c0,0,0,0.01-0.01,0.01c-0.01,0.01-0.01,0.03-0.02,0.04c-0.02,0.04-0.04,0.08-0.06,0.12c-0.01,0.01-0.02,0.03-0.02,0.04
			c0,0,0,0,0,0c-0.02,0.04-0.05,0.08-0.07,0.12c-0.01,0.02-0.02,0.03-0.03,0.05c-0.03,0.04-0.05,0.08-0.08,0.12
			c-0.02,0.03-0.03,0.05-0.05,0.08c-0.01,0.02-0.03,0.04-0.04,0.06c-0.02,0.03-0.04,0.05-0.06,0.08c-0.01,0.02-0.03,0.04-0.04,0.05
			c-0.02,0.03-0.04,0.05-0.07,0.08c-0.01,0.02-0.03,0.03-0.04,0.05c-0.02,0.03-0.05,0.05-0.07,0.08c-0.01,0.02-0.03,0.03-0.04,0.05
			c-0.04,0.04-0.08,0.08-0.12,0.12c-0.02,0.02-0.05,0.05-0.07,0.07c-0.02,0.02-0.03,0.03-0.05,0.05c-0.03,0.03-0.06,0.05-0.09,0.07
			c-0.01,0.01-0.03,0.02-0.04,0.04c-0.03,0.03-0.07,0.06-0.11,0.08c-0.01,0.01-0.02,0.01-0.03,0.02c-0.65,0.49-1.46,0.78-2.34,0.78
			c-0.88,0-1.69-0.29-2.34-0.78c-0.01-0.01-0.02-0.01-0.03-0.02c-0.04-0.03-0.07-0.06-0.11-0.08c-0.01-0.01-0.03-0.02-0.04-0.04
			c-0.03-0.02-0.06-0.05-0.09-0.07c-0.02-0.02-0.03-0.03-0.05-0.05c-0.02-0.02-0.05-0.05-0.07-0.07c-0.04-0.04-0.08-0.08-0.12-0.12
			c-0.01-0.02-0.03-0.03-0.04-0.04C9.08,12,9.06,11.98,9.04,11.95c-0.01-0.02-0.03-0.03-0.04-0.05c-0.02-0.03-0.04-0.05-0.07-0.08
			c-0.01-0.02-0.03-0.04-0.04-0.05c-0.02-0.03-0.04-0.05-0.06-0.08c-0.02-0.02-0.03-0.04-0.05-0.06c-0.02-0.02-0.04-0.05-0.05-0.07
			c-0.03-0.04-0.05-0.08-0.08-0.12c-0.01-0.02-0.02-0.03-0.03-0.05c-0.02-0.04-0.05-0.08-0.07-0.12c-0.01-0.02-0.02-0.03-0.02-0.05
			c-0.02-0.04-0.04-0.08-0.06-0.12c-0.01-0.01-0.01-0.03-0.02-0.04c0,0,0,0,0-0.01c-0.02-0.04-0.03-0.08-0.05-0.11
			c-0.01-0.02-0.02-0.04-0.02-0.05c-0.02-0.04-0.04-0.09-0.05-0.14c-0.01-0.02-0.02-0.05-0.03-0.07c-0.01-0.03-0.02-0.05-0.03-0.08
			c-0.01-0.03-0.02-0.06-0.03-0.08c-0.01-0.04-0.02-0.08-0.04-0.13c-0.01-0.03-0.02-0.06-0.02-0.09c-0.01-0.02-0.01-0.05-0.02-0.07
			c-0.01-0.03-0.01-0.06-0.02-0.09C8.13,10.09,8.13,10.04,8.12,10c0-0.02-0.01-0.05-0.01-0.07C8.1,9.89,8.1,9.85,8.09,9.81
			c0-0.02,0-0.04-0.01-0.05C8.08,9.7,8.08,9.65,8.07,9.59c0-0.02,0-0.03,0-0.05c0-0.06,0-0.12,0-0.18c0-0.06,0-0.13,0-0.19
			c0-0.02,0-0.03,0-0.05c0-0.05,0.01-0.09,0.01-0.14c0-0.02,0-0.03,0.01-0.05C8.1,8.89,8.1,8.84,8.11,8.79c0-0.01,0-0.02,0-0.03
			C8.34,7.34,9.32,6.17,10.64,5.68z M3.03,7.19c0-2.17,1.76-3.93,3.93-3.93c1.13,0,2.2,0.49,2.94,1.32C8.19,5.33,7,6.94,6.81,8.82
			c0,0.01,0,0.03,0,0.04C6.8,8.93,6.79,9,6.79,9.06c0,0.02,0,0.04,0,0.06c0,0.08-0.01,0.16-0.01,0.24c0,0.08,0,0.16,0.01,0.25
			c0,0.03,0,0.07,0.01,0.1c0,0.05,0.01,0.09,0.01,0.14c0,0.04,0.01,0.08,0.01,0.12c0,0.04,0.01,0.07,0.01,0.11
			c0.01,0.05,0.01,0.09,0.02,0.14c0,0.03,0.01,0.06,0.01,0.08c0.01,0.05,0.02,0.11,0.03,0.16c0,0.02,0.01,0.03,0.01,0.05
			c0.04,0.19,0.1,0.38,0.16,0.57c0,0.01,0.01,0.02,0.01,0.04c-0.04,0-0.08,0-0.12,0C4.8,11.13,3.03,9.36,3.03,7.19z M6.11,15.41
			c-0.01,0.02-0.03,0.05-0.04,0.07c-0.03,0.05-0.06,0.1-0.09,0.14c-0.02,0.03-0.03,0.05-0.05,0.08c-0.03,0.04-0.05,0.09-0.07,0.13
			c-0.02,0.03-0.03,0.06-0.05,0.09c-0.02,0.04-0.05,0.09-0.07,0.14c-0.01,0.03-0.03,0.06-0.04,0.09c-0.02,0.05-0.04,0.1-0.07,0.14
			c-0.01,0.03-0.02,0.05-0.04,0.08c-0.03,0.06-0.05,0.12-0.07,0.17c-0.01,0.02-0.01,0.03-0.02,0.05c-0.03,0.08-0.06,0.15-0.09,0.23
			c-0.01,0.02-0.01,0.04-0.02,0.05c-0.02,0.06-0.04,0.12-0.06,0.18c-0.01,0.03-0.02,0.05-0.02,0.08c-0.02,0.05-0.03,0.1-0.04,0.15
			c-0.01,0.03-0.02,0.06-0.02,0.09c-0.01,0.05-0.02,0.1-0.04,0.15c-0.01,0.03-0.01,0.06-0.02,0.09c-0.01,0.05-0.02,0.1-0.03,0.15
			c-0.01,0.03-0.01,0.06-0.02,0.09c-0.01,0.05-0.02,0.11-0.03,0.16c0,0.03-0.01,0.05-0.01,0.08c-0.01,0.08-0.02,0.16-0.03,0.24
			c0,0,0,0,0,0c-0.01,0.07-0.02,0.15-0.02,0.22H1.29v-1.62c0-2.21,1.27-4.19,3.26-5.13c0.72,0.38,1.55,0.6,2.42,0.6
			c0.25,0,0.51-0.02,0.76-0.06c0.04,0.06,0.08,0.11,0.12,0.17c0.01,0.02,0.03,0.04,0.04,0.05c0.04,0.05,0.08,0.1,0.12,0.15
			c0.02,0.02,0.04,0.04,0.05,0.06c0.04,0.05,0.08,0.09,0.12,0.14c0.02,0.02,0.04,0.05,0.07,0.07c0.04,0.04,0.08,0.08,0.12,0.12
			c0.01,0.01,0.03,0.03,0.04,0.04c-0.06,0.03-0.11,0.07-0.17,0.1c-0.01,0.01-0.02,0.01-0.03,0.02c-0.05,0.04-0.11,0.07-0.16,0.11
			C8.04,13.4,8.02,13.41,8,13.43c-0.05,0.03-0.1,0.07-0.14,0.1c-0.01,0.01-0.03,0.02-0.04,0.03c-0.06,0.05-0.12,0.09-0.18,0.14
			c-0.01,0.01-0.03,0.02-0.04,0.03c-0.05,0.04-0.09,0.08-0.14,0.12c-0.02,0.02-0.04,0.03-0.05,0.05c-0.05,0.04-0.09,0.08-0.14,0.12
			c-0.01,0.01-0.02,0.02-0.03,0.03c-0.05,0.05-0.11,0.1-0.16,0.16c-0.01,0.01-0.03,0.03-0.04,0.04c-0.04,0.04-0.08,0.08-0.12,0.13
			c-0.02,0.02-0.03,0.03-0.05,0.05c-0.04,0.05-0.09,0.1-0.13,0.15c-0.01,0.01-0.01,0.02-0.02,0.02c-0.05,0.06-0.1,0.12-0.15,0.18
			c-0.01,0.02-0.03,0.03-0.04,0.05c-0.04,0.05-0.07,0.09-0.11,0.14C6.41,14.98,6.4,15,6.38,15.01c-0.05,0.06-0.09,0.12-0.13,0.19
			C6.2,15.27,6.16,15.34,6.11,15.41z M6.32,20.74v-0.89v-0.73c0-0.07,0-0.14,0-0.21c0-0.02,0-0.05,0-0.07c0-0.05,0-0.09,0.01-0.14
			c0-0.03,0.01-0.06,0.01-0.09c0-0.04,0.01-0.08,0.01-0.12c0-0.03,0.01-0.06,0.01-0.09c0.01-0.04,0.01-0.08,0.02-0.12
			c0-0.03,0.01-0.06,0.02-0.09c0.01-0.04,0.01-0.08,0.02-0.11c0.01-0.03,0.01-0.06,0.02-0.09c0.01-0.04,0.01-0.07,0.02-0.11
			c0.01-0.03,0.02-0.06,0.02-0.1c0.01-0.04,0.02-0.07,0.03-0.11c0.01-0.03,0.02-0.06,0.03-0.1c0.01-0.03,0.02-0.07,0.03-0.1
			c0.01-0.03,0.02-0.06,0.03-0.1c0.01-0.03,0.02-0.07,0.03-0.1c0.01-0.03,0.02-0.06,0.03-0.09c0.01-0.03,0.02-0.07,0.04-0.1
			c0.01-0.03,0.02-0.06,0.04-0.09c0.01-0.03,0.03-0.07,0.04-0.1c0.01-0.03,0.03-0.06,0.04-0.09c0.01-0.03,0.03-0.06,0.04-0.09
			c0.01-0.03,0.03-0.06,0.04-0.09c0.02-0.03,0.03-0.06,0.05-0.09c0.02-0.03,0.03-0.06,0.05-0.09c0.02-0.03,0.03-0.06,0.05-0.09
			c0.02-0.03,0.03-0.06,0.05-0.09c0.02-0.03,0.03-0.06,0.05-0.09c0.02-0.03,0.04-0.06,0.05-0.09c0.02-0.03,0.04-0.06,0.06-0.09
			c0.02-0.03,0.04-0.06,0.06-0.08c0.02-0.03,0.04-0.06,0.06-0.08c0.02-0.03,0.04-0.06,0.06-0.08c0.02-0.03,0.04-0.05,0.06-0.08
			c0.02-0.03,0.04-0.05,0.06-0.08c0.02-0.03,0.04-0.05,0.06-0.08c0.02-0.03,0.04-0.05,0.07-0.08c0.02-0.03,0.04-0.05,0.07-0.08
			c0.02-0.03,0.05-0.05,0.07-0.08c0.02-0.03,0.05-0.05,0.07-0.07c0.02-0.02,0.05-0.05,0.07-0.07c0.02-0.02,0.05-0.05,0.07-0.07
			c0.02-0.02,0.05-0.05,0.07-0.07c0.03-0.02,0.05-0.05,0.08-0.07c0.03-0.02,0.05-0.05,0.08-0.07c0.03-0.02,0.05-0.05,0.08-0.07
			c0.03-0.02,0.05-0.04,0.08-0.07c0.03-0.02,0.05-0.04,0.08-0.06c0.03-0.02,0.05-0.04,0.08-0.06c0.03-0.02,0.06-0.04,0.08-0.06
			c0.03-0.02,0.06-0.04,0.08-0.06c0.03-0.02,0.06-0.04,0.09-0.06c0.03-0.02,0.06-0.04,0.09-0.06c0.03-0.02,0.06-0.04,0.09-0.06
			c0.03-0.02,0.06-0.04,0.09-0.05c0.03-0.02,0.06-0.04,0.09-0.05c0.03-0.02,0.06-0.03,0.09-0.05c0.03-0.02,0.06-0.03,0.1-0.05
			c0.03-0.02,0.06-0.03,0.09-0.05c0.02-0.01,0.05-0.02,0.07-0.04c0.72,0.38,1.55,0.6,2.42,0.6c0.87,0,1.7-0.22,2.42-0.6
			c0.02,0.01,0.05,0.02,0.07,0.03c0.03,0.02,0.06,0.03,0.09,0.05c0.03,0.02,0.06,0.03,0.1,0.05c0.03,0.02,0.06,0.03,0.09,0.05
			c0.03,0.02,0.06,0.03,0.09,0.05c0.03,0.02,0.06,0.04,0.09,0.05c0.03,0.02,0.06,0.04,0.09,0.06c0.03,0.02,0.06,0.04,0.09,0.06
			c0.03,0.02,0.06,0.04,0.09,0.06c0.03,0.02,0.06,0.04,0.09,0.06s0.06,0.04,0.08,0.06c0.03,0.02,0.06,0.04,0.08,0.06
			c0.03,0.02,0.05,0.04,0.08,0.06c0.03,0.02,0.05,0.04,0.08,0.07c0.03,0.02,0.05,0.04,0.08,0.07c0.03,0.02,0.05,0.05,0.08,0.07
			c0.03,0.02,0.05,0.05,0.08,0.07c0.03,0.02,0.05,0.05,0.08,0.07c0.02,0.02,0.05,0.05,0.07,0.07c0.02,0.02,0.05,0.05,0.07,0.07
			c0.02,0.02,0.05,0.05,0.07,0.07c0.02,0.03,0.05,0.05,0.07,0.08c0.02,0.03,0.04,0.05,0.07,0.08c0.02,0.03,0.05,0.05,0.07,0.08
			c0.02,0.03,0.04,0.05,0.06,0.08c0.02,0.03,0.04,0.05,0.06,0.08c0.02,0.03,0.04,0.05,0.06,0.08c0.02,0.03,0.04,0.06,0.06,0.08
			c0.02,0.03,0.04,0.06,0.06,0.08c0.02,0.03,0.04,0.06,0.06,0.09c0.02,0.03,0.04,0.06,0.06,0.09c0.02,0.03,0.04,0.06,0.06,0.09
			c0.02,0.03,0.03,0.06,0.05,0.09c0.02,0.03,0.03,0.06,0.05,0.09c0.02,0.03,0.03,0.06,0.05,0.09c0.02,0.03,0.03,0.06,0.05,0.09
			c0.02,0.03,0.03,0.06,0.05,0.09c0.02,0.03,0.03,0.06,0.04,0.09c0.01,0.03,0.03,0.06,0.04,0.09c0.01,0.03,0.03,0.06,0.04,0.09
			c0.01,0.03,0.03,0.06,0.04,0.1c0.01,0.03,0.03,0.06,0.04,0.09c0.01,0.03,0.02,0.07,0.04,0.1c0.01,0.03,0.02,0.06,0.03,0.09
			c0.01,0.03,0.02,0.07,0.03,0.1c0.01,0.03,0.02,0.06,0.03,0.1c0.01,0.03,0.02,0.07,0.03,0.1c0.01,0.03,0.02,0.06,0.03,0.1
			c0.01,0.04,0.02,0.07,0.03,0.11c0.01,0.03,0.02,0.06,0.02,0.1c0.01,0.04,0.02,0.07,0.02,0.11c0.01,0.03,0.01,0.06,0.02,0.09
			c0.01,0.04,0.01,0.07,0.02,0.11c0.01,0.03,0.01,0.06,0.02,0.09c0.01,0.04,0.01,0.08,0.02,0.12c0,0.03,0.01,0.06,0.01,0.09
			c0,0.04,0.01,0.08,0.01,0.12c0,0.03,0.01,0.06,0.01,0.09c0,0.05,0.01,0.09,0.01,0.14c0,0.02,0,0.05,0,0.07c0,0.07,0,0.14,0,0.21
			v0.73v0.89L6.32,20.74L6.32,20.74z M18.94,18.56c-0.01-0.16-0.03-0.31-0.05-0.47c0-0.02-0.01-0.05-0.01-0.07
			c-0.01-0.06-0.02-0.11-0.03-0.17c-0.01-0.03-0.01-0.06-0.02-0.09c-0.01-0.05-0.02-0.1-0.03-0.15c-0.01-0.03-0.01-0.06-0.02-0.09
			c-0.01-0.05-0.02-0.1-0.04-0.15c-0.01-0.03-0.02-0.06-0.02-0.09c-0.01-0.05-0.03-0.1-0.04-0.15c-0.01-0.03-0.02-0.05-0.02-0.08
			c-0.02-0.06-0.04-0.12-0.06-0.18c-0.01-0.02-0.01-0.03-0.02-0.05c-0.03-0.08-0.06-0.15-0.09-0.23c-0.01-0.02-0.01-0.03-0.02-0.05
			c-0.02-0.06-0.05-0.12-0.07-0.18c-0.01-0.03-0.02-0.05-0.03-0.08c-0.02-0.05-0.04-0.1-0.07-0.15c-0.01-0.03-0.03-0.06-0.04-0.08
			c-0.02-0.05-0.05-0.09-0.07-0.14c-0.01-0.03-0.03-0.06-0.04-0.08c-0.02-0.05-0.05-0.09-0.08-0.14c-0.02-0.03-0.03-0.05-0.05-0.08
			c-0.03-0.05-0.06-0.1-0.09-0.14c-0.01-0.02-0.03-0.04-0.04-0.07c-0.04-0.07-0.09-0.14-0.14-0.21c-0.04-0.06-0.09-0.13-0.13-0.19
			c-0.01-0.02-0.03-0.04-0.04-0.05c-0.03-0.05-0.07-0.09-0.11-0.14c-0.01-0.02-0.03-0.03-0.04-0.05c-0.05-0.06-0.1-0.12-0.15-0.18
			c-0.01-0.01-0.01-0.01-0.02-0.02c-0.04-0.05-0.09-0.1-0.13-0.15c-0.02-0.02-0.03-0.03-0.05-0.05c-0.04-0.04-0.08-0.08-0.12-0.13
			c-0.01-0.01-0.03-0.03-0.04-0.04c-0.05-0.05-0.11-0.11-0.16-0.16c-0.01-0.01-0.02-0.02-0.03-0.03c-0.04-0.04-0.09-0.08-0.14-0.12
			c-0.02-0.02-0.03-0.03-0.05-0.05c-0.05-0.04-0.09-0.08-0.14-0.12c-0.01-0.01-0.03-0.02-0.04-0.03c-0.06-0.05-0.12-0.09-0.18-0.14
			c-0.01-0.01-0.03-0.02-0.05-0.03c-0.05-0.03-0.09-0.07-0.14-0.1c-0.02-0.01-0.04-0.03-0.06-0.04c-0.05-0.04-0.11-0.07-0.16-0.11
			c-0.01-0.01-0.02-0.01-0.03-0.02c-0.05-0.04-0.11-0.07-0.17-0.1c0.01-0.01,0.03-0.03,0.04-0.04c0.04-0.04,0.08-0.08,0.12-0.12
			c0.02-0.02,0.04-0.04,0.06-0.07c0.04-0.05,0.08-0.09,0.12-0.14c0.02-0.02,0.03-0.04,0.05-0.06c0.04-0.05,0.09-0.1,0.13-0.16
			c0.01-0.02,0.03-0.03,0.04-0.05c0.04-0.05,0.08-0.11,0.12-0.17c0.25,0.04,0.5,0.06,0.76,0.06c0.87,0,1.7-0.22,2.42-0.6
			c1.99,0.94,3.26,2.92,3.26,5.13v1.62H18.94z"/>
	</g>
</g>
</svg>
