<?xml version="1.0" encoding="utf-8"?>
<!-- Generator: Adobe Illustrator 24.3.0, SVG Export Plug-In . SVG Version: 6.00 Build 0)  -->
<svg version="1.1" id="Layer_1" xmlns="http://www.w3.org/2000/svg" xmlns:xlink="http://www.w3.org/1999/xlink" x="0px" y="0px"
	 viewBox="0 0 100 100" style="enable-background:new 0 0 100 100;" xml:space="preserve">
<style type="text/css">
	.iconPhp01{fill-rule:evenodd;clip-rule:evenodd;fill:#95979A;}
	.iconPhp02{fill-rule:evenodd;clip-rule:evenodd;}
</style>
<g>
	<ellipse class="iconPhp01" cx="50" cy="50" rx="50" ry="26.03"/>
	<path class="iconPhp02" d="M14.04,65.41l5.48-27.74h12.67c5.48,0.34,8.22,3.08,8.22,7.88c0,8.22-6.51,13.01-12.33,12.67h-6.16l-1.37,7.19
		H14.04z M23.29,53.08L25,42.81h4.45c2.4,0,4.11,1.03,4.11,3.08c-0.34,5.82-3.08,6.85-6.16,7.19L23.29,53.08L23.29,53.08z
		 M39.14,58.22l5.48-27.74h6.51l-1.37,7.19h6.16c5.48,0.34,7.53,3.08,6.85,6.51l-2.4,14.04h-6.85l2.4-12.67
		c0.34-1.71,0.34-2.74-2.05-2.74h-5.14l-3.08,15.41H39.14z M59.93,65.41l5.48-27.74h12.67c5.48,0.34,8.22,3.08,8.22,7.88
		c0,8.22-6.51,13.01-12.33,12.67h-6.16l-1.37,7.19H59.93z M69.18,53.08l1.71-10.27h4.45c2.4,0,4.11,1.03,4.11,3.08
		c-0.34,5.82-3.08,6.85-6.16,7.19H69.18L69.18,53.08z"/>
</g>
</svg>
