<?xml version="1.0" encoding="utf-8"?>
<!-- Generator: Adobe Illustrator 24.3.0, SVG Export Plug-In . SVG Version: 6.00 Build 0)  -->
<svg version="1.1" id="Layer_1" xmlns="http://www.w3.org/2000/svg" xmlns:xlink="http://www.w3.org/1999/xlink" x="0px" y="0px"
	 viewBox="0 0 100 100" style="enable-background:new 0 0 100 100;" xml:space="preserve">
<g>
	<path d="M100,50.01c0-6.62-8.3-12.9-21.02-16.8c2.94-12.96,1.63-23.28-4.12-26.58c-1.32-0.77-2.87-1.14-4.57-1.14v4.55
		c0.94,0,1.69,0.18,2.32,0.53c2.77,1.59,3.97,7.64,3.04,15.43c-0.22,1.92-0.59,3.93-1.04,5.99c-4-0.98-8.36-1.73-12.94-2.22
		c-2.75-3.77-5.61-7.2-8.48-10.19c6.64-6.18,12.88-9.56,17.12-9.56V5.47l0,0c-5.61,0-12.94,4-20.36,10.93
		C42.54,9.51,35.2,5.55,29.6,5.55v4.55c4.22,0,10.48,3.36,17.12,9.5c-2.85,3-5.71,6.4-8.42,10.17c-4.61,0.49-8.97,1.24-12.96,2.24
		c-0.47-2.04-0.82-4.02-1.06-5.91c-0.96-7.79,0.22-13.84,2.98-15.45c0.61-0.37,1.41-0.53,2.34-0.53V5.57l0,0
		c-1.71,0-3.26,0.37-4.61,1.14c-5.73,3.3-7.01,13.6-4.06,26.52C8.26,37.15,0,43.41,0,50.01c0,6.62,8.3,12.9,21.02,16.8
		c-2.94,12.96-1.63,23.28,4.12,26.58c1.32,0.77,2.87,1.14,4.59,1.14c5.61,0,12.94-4,20.36-10.93c7.42,6.89,14.76,10.84,20.36,10.84
		c1.71,0,3.26-0.37,4.61-1.14c5.73-3.3,7.01-13.6,4.06-26.52C91.74,62.89,100,56.61,100,50.01z M73.46,36.41
		c-0.75,2.63-1.69,5.34-2.75,8.05c-0.84-1.63-1.71-3.26-2.67-4.89c-0.94-1.63-1.94-3.22-2.94-4.77C68,35.23,70.79,35.76,73.46,36.41
		z M64.13,58.12c-1.59,2.75-3.22,5.36-4.91,7.79c-3.04,0.26-6.11,0.41-9.21,0.41c-3.08,0-6.16-0.14-9.17-0.39
		c-1.69-2.43-3.34-5.01-4.93-7.75c-1.55-2.67-2.96-5.38-4.24-8.11c1.26-2.73,2.69-5.46,4.22-8.13c1.59-2.75,3.22-5.36,4.91-7.79
		c3.04-0.26,6.11-0.41,9.21-0.41c3.08,0,6.16,0.14,9.17,0.39c1.69,2.43,3.34,5.01,4.93,7.75c1.55,2.67,2.96,5.38,4.24,8.11
		C67.06,52.72,65.65,55.45,64.13,58.12z M70.71,55.47c1.1,2.73,2.04,5.46,2.81,8.11c-2.67,0.65-5.48,1.2-8.4,1.63
		c1-1.57,2-3.18,2.94-4.83C69,58.75,69.87,57.1,70.71,55.47z M50.04,77.22c-1.9-1.96-3.79-4.14-5.67-6.52
		c1.83,0.08,3.71,0.14,5.61,0.14c1.92,0,3.81-0.04,5.67-0.14C53.81,73.08,51.92,75.26,50.04,77.22z M34.88,65.22
		c-2.89-0.43-5.69-0.96-8.36-1.61c0.75-2.63,1.69-5.34,2.75-8.05c0.84,1.63,1.71,3.26,2.67,4.89C32.9,62.08,33.88,63.67,34.88,65.22
		z M49.94,22.8c1.9,1.96,3.79,4.14,5.67,6.52c-1.83-0.08-3.71-0.14-5.61-0.14c-1.92,0-3.81,0.04-5.67,0.14
		C46.17,26.94,48.06,24.76,49.94,22.8z M34.86,34.8c-1,1.57-2,3.18-2.94,4.83c-0.94,1.63-1.81,3.26-2.65,4.89
		c-1.1-2.73-2.04-5.46-2.81-8.11C29.13,35.78,31.94,35.23,34.86,34.8z M16.41,60.32C9.19,57.25,4.53,53.21,4.53,50.01
		c0-3.2,4.67-7.26,11.88-10.31c1.75-0.75,3.67-1.43,5.65-2.06c1.16,4,2.69,8.15,4.59,12.41c-1.88,4.24-3.38,8.38-4.53,12.35
		C20.1,61.77,18.18,61.08,16.41,60.32z M27.37,89.45c-2.77-1.59-3.97-7.64-3.04-15.43c0.22-1.92,0.59-3.93,1.04-5.99
		c4,0.98,8.36,1.73,12.94,2.22c2.75,3.77,5.61,7.2,8.48,10.19C40.15,86.62,33.92,90,29.68,90C28.76,89.98,27.99,89.8,27.37,89.45z
		 M75.72,73.92c0.96,7.79-0.22,13.84-2.98,15.45c-0.61,0.37-1.41,0.53-2.34,0.53c-4.22,0-10.48-3.36-17.12-9.5
		c2.85-3,5.71-6.4,8.42-10.17c4.61-0.49,8.97-1.24,12.96-2.24C75.13,70.05,75.5,72.02,75.72,73.92z M83.57,60.32
		c-1.75,0.75-3.67,1.43-5.65,2.06c-1.16-4-2.69-8.15-4.59-12.41c1.88-4.24,3.38-8.38,4.53-12.35c2.02,0.63,3.93,1.32,5.73,2.08
		c7.22,3.08,11.88,7.11,11.88,10.31C95.45,53.21,90.79,57.27,83.57,60.32z"/>
	<path d="M29.58,5.55L29.58,5.55L29.58,5.55z"/>
	<circle cx="49.98" cy="50.01" r="9.32"/>
	<path d="M70.28,5.49L70.28,5.49L70.28,5.49z"/>
</g>
</svg>
