<?xml version="1.0" encoding="utf-8"?>
<!-- Generator: Adobe Illustrator 24.3.0, SVG Export Plug-In . SVG Version: 6.00 Build 0)  -->
<svg version="1.1" id="Layer_1" xmlns="http://www.w3.org/2000/svg" xmlns:xlink="http://www.w3.org/1999/xlink" x="0px" y="0px"
	 viewBox="0 0 100 100" style="enable-background:new 0 0 100 100;" xml:space="preserve">
<path d="M86.11,55.61c-3.49,0.02-6.52,0.86-9.06,2.1c-0.93-1.84-1.86-3.49-2.03-4.69c-0.18-1.41-0.4-2.26-0.18-3.95
	s1.21-4.07,1.19-4.26s-0.22-1.04-2.23-1.06c-2.01-0.02-3.74,0.38-3.95,0.91c-0.2,0.53-0.58,1.74-0.84,2.98
	c-0.35,1.83-4.02,8.35-6.12,11.76c-0.68-1.33-1.26-2.5-1.39-3.43c-0.18-1.41-0.4-2.26-0.18-3.95c0.22-1.68,1.21-4.07,1.19-4.26
	c-0.02-0.18-0.22-1.04-2.23-1.06c-2.01-0.02-3.74,0.38-3.95,0.91c-0.2,0.53-0.42,1.77-0.84,2.98c-0.42,1.21-5.3,12.09-6.58,14.9
	c-0.66,1.44-1.22,2.59-1.63,3.38l0,0c0,0-0.02,0.05-0.07,0.15c-0.35,0.68-0.55,1.04-0.55,1.04s0,0,0,0.02
	c-0.27,0.49-0.57,0.95-0.71,0.95c-0.11,0-0.31-1.32,0.04-3.11c0.73-3.78,2.47-9.66,2.45-9.86c0-0.11,0.33-1.13-1.13-1.66
	c-1.42-0.53-1.94,0.35-2.06,0.35s-0.22,0.31-0.22,0.31s1.59-6.61-3.03-6.61c-2.89,0-6.87,3.16-8.84,6.01
	c-1.24,0.68-3.89,2.12-6.72,3.67c-1.08,0.6-2.19,1.21-3.23,1.77c-0.07-0.07-0.15-0.16-0.22-0.24C17.39,55.71,7.06,51.49,7.49,43.47
	c0.16-2.92,1.17-10.59,19.85-19.91c15.38-7.58,27.62-5.48,29.74-0.82c3.03,6.65-6.56,19-22.45,20.79
	c-6.06,0.68-9.24-1.66-10.05-2.54c-0.84-0.91-0.97-0.97-1.28-0.79c-0.51,0.27-0.18,1.1,0,1.57c0.47,1.24,2.43,3.43,5.74,4.51
	c2.92,0.95,10.03,1.48,18.63-1.84c9.63-3.73,17.15-14.08,14.94-22.76c-2.21-8.8-16.82-11.71-30.65-6.79
	C23.75,17.8,14.84,22.41,8.43,28.4C0.81,35.52-0.4,41.71,0.1,44.31c1.77,9.21,14.47,15.2,19.54,19.64
	c-0.26,0.15-0.49,0.27-0.69,0.38C16.41,65.59,6.73,70.65,4.32,76c-2.74,6.06,0.44,10.41,2.54,11c6.52,1.81,13.22-1.44,16.82-6.81
	c3.6-5.37,3.16-12.35,1.5-15.54c-0.02-0.04-0.04-0.07-0.07-0.11c0.66-0.38,1.33-0.79,1.99-1.17c1.3-0.77,2.58-1.48,3.67-2.06
	c-0.62,1.7-1.08,3.73-1.3,6.65c-0.27,3.43,1.13,7.89,2.98,9.64c0.82,0.77,1.79,0.79,2.41,0.79c2.16,0,3.12-1.79,4.2-3.91
	c1.32-2.59,2.5-5.61,2.5-5.61S40.08,77,44.1,77c1.46,0,2.94-1.9,3.6-2.87c0,0.02,0,0.02,0,0.02s0.04-0.05,0.11-0.18
	c0.15-0.24,0.24-0.38,0.24-0.38s0-0.02,0-0.04c0.58-1.02,1.9-3.34,3.85-7.2c2.52-4.97,4.95-11.18,4.95-11.18s0.22,1.52,0.97,4.04
	c0.44,1.48,1.35,3.11,2.08,4.68c-0.58,0.82-0.95,1.28-0.95,1.28s0,0,0.02,0.02c-0.47,0.62-0.99,1.3-1.55,1.95
	c-1.99,2.37-4.37,5.1-4.69,5.88c-0.38,0.93-0.29,1.61,0.44,2.16c0.53,0.4,1.48,0.46,2.45,0.4c1.79-0.13,3.05-0.57,3.67-0.84
	c0.97-0.35,2.1-0.88,3.16-1.66c1.95-1.44,3.14-3.51,3.03-6.23c-0.05-1.5-0.55-3-1.15-4.4c0.18-0.26,0.35-0.51,0.53-0.77
	c3.09-4.51,5.48-9.46,5.48-9.46s0.22,1.52,0.97,4.04c0.37,1.28,1.11,2.67,1.77,4.02c-2.9,2.36-4.69,5.1-5.33,6.89
	c-1.15,3.32-0.26,4.82,1.44,5.17c0.77,0.16,1.86-0.2,2.67-0.55c1.02-0.33,2.23-0.9,3.38-1.74c1.95-1.44,3.84-3.45,3.73-6.17
	c-0.05-1.24-0.38-2.47-0.84-3.65c2.47-1.02,5.64-1.59,9.7-1.11c8.69,1.02,10.41,6.45,10.08,8.73c-0.33,2.28-2.16,3.53-2.76,3.91
	s-0.8,0.51-0.75,0.79c0.07,0.4,0.37,0.38,0.88,0.31c0.71-0.13,4.57-1.84,4.73-6.05C100.26,61.42,95.15,55.56,86.11,55.61z
	 M19.04,78.23c-2.89,3.14-6.9,4.33-8.64,3.32c-1.86-1.08-1.13-5.72,2.41-9.04c2.16-2.03,4.93-3.91,6.78-5.06
	c0.42-0.26,1.04-0.62,1.79-1.08c0.13-0.07,0.2-0.11,0.2-0.11l0,0c0.15-0.09,0.29-0.18,0.44-0.27
	C23.31,70.74,22.07,74.92,19.04,78.23z M40.04,63.94c-1,2.45-3.11,8.71-4.38,8.37c-1.1-0.29-1.77-5.04-0.22-9.74
	c0.79-2.36,2.45-5.17,3.42-6.27c1.57-1.75,3.31-2.34,3.73-1.63C43.11,55.61,40.66,62.41,40.04,63.94z M57.38,72.24
	c-0.42,0.22-0.82,0.37-1,0.26c-0.13-0.07,0.18-0.37,0.18-0.37s2.17-2.34,3.03-3.4c0.49-0.62,1.08-1.35,1.7-2.17
	c0,0.07,0,0.16,0,0.24C61.29,69.59,58.58,71.47,57.38,72.24z M70.75,69.19c-0.31-0.22-0.26-0.95,0.79-3.23
	c0.4-0.9,1.35-2.39,2.98-3.84c0.18,0.58,0.31,1.15,0.29,1.68C74.78,67.32,72.26,68.64,70.75,69.19z"/>
</svg>
