<svg xmlns="http://www.w3.org/2000/svg" width="27.45" height="28" viewBox="0 0 27.45 28">
  <g id="search" transform="translate(0)">
    <path id="Shape" d="M25.595,28a.634.634,0,0,1-.456-.193L18.63,21.169a.681.681,0,0,1-.187-.465v-.722a10.995,10.995,0,0,1-15.177-.564,11.539,11.539,0,0,1,0-16.087,11,11,0,0,1,15.771,0A11.415,11.415,0,0,1,22.3,11.374a11.526,11.526,0,0,1-2.713,7.438H20.3a.635.635,0,0,1,.455.191l6.509,6.639a.667.667,0,0,1,0,.93l-1.211,1.236A.634.634,0,0,1,25.595,28ZM11.151,2.625a8.674,8.674,0,0,0-8.578,8.749,8.675,8.675,0,0,0,8.578,8.75,8.44,8.44,0,0,0,6.067-2.562,8.781,8.781,0,0,0,2.512-6.188A8.675,8.675,0,0,0,11.151,2.625Z" fill="#fff"/>
  </g>
</svg>
