<?xml version="1.0" encoding="utf-8"?>
<!-- Generator: Adobe Illustrator 24.2.0, SVG Export Plug-In . SVG Version: 6.00 Build 0)  -->
<svg version="1.1" id="Warstwa_1" xmlns="http://www.w3.org/2000/svg" xmlns:xlink="http://www.w3.org/1999/xlink" x="0px" y="0px"
	 viewBox="0 0 24 24" style="enable-background:new 0 0 24 24;" xml:space="preserve">
<g>
	<g>
		<path d="M22.77,9.48l-1.68-0.29c-0.18-0.57-0.4-1.11-0.68-1.63l0.99-1.39c0.42-0.59,0.36-1.4-0.16-1.91l-1.49-1.49
			c-0.28-0.28-0.65-0.44-1.05-0.44c-0.31,0-0.61,0.1-0.86,0.28L16.45,3.6c-0.54-0.29-1.11-0.52-1.69-0.7l-0.28-1.66
			C14.35,0.52,13.74,0,13.01,0H10.9c-0.73,0-1.34,0.52-1.46,1.24l-0.29,1.7C8.58,3.12,8.04,3.35,7.52,3.63L6.14,2.64
			C5.89,2.46,5.59,2.36,5.27,2.36c-0.4,0-0.77,0.16-1.05,0.44l-1.5,1.49C2.22,4.8,2.15,5.61,2.57,6.2l1,1.41
			C3.29,8.14,3.07,8.68,2.9,9.25L1.24,9.53C0.52,9.65,0,10.27,0,10.99v2.11c0,0.73,0.52,1.34,1.24,1.46l1.7,0.29
			c0.18,0.56,0.41,1.11,0.69,1.63l-0.99,1.37c-0.42,0.59-0.36,1.4,0.16,1.91l1.49,1.49c0.28,0.28,0.65,0.44,1.05,0.44
			c0.31,0,0.61-0.1,0.86-0.28l1.41-1c0.51,0.27,1.04,0.48,1.58,0.65l0.28,1.68C9.6,23.48,10.21,24,10.94,24h2.12
			c0.73,0,1.34-0.52,1.46-1.24l0.29-1.68c0.57-0.18,1.11-0.4,1.63-0.68l1.39,0.99c0.25,0.18,0.55,0.28,0.86,0.28l0,0
			c0.4,0,0.77-0.16,1.05-0.44l1.49-1.49c0.51-0.51,0.58-1.32,0.16-1.91l-0.99-1.39c0.28-0.53,0.51-1.07,0.68-1.63l1.68-0.28
			C23.48,14.4,24,13.78,24,13.06v-2.11C24.01,10.22,23.49,9.6,22.77,9.48z M22.66,13.06c0,0.07-0.05,0.12-0.11,0.13l-2.11,0.35
			c-0.27,0.05-0.48,0.24-0.54,0.5c-0.19,0.74-0.48,1.44-0.87,2.1c-0.14,0.23-0.13,0.52,0.03,0.74l1.24,1.74
			c0.04,0.05,0.03,0.13-0.02,0.17l-1.49,1.49c-0.04,0.04-0.07,0.04-0.1,0.04c-0.03,0-0.06-0.01-0.08-0.03l-1.74-1.24
			c-0.22-0.16-0.51-0.17-0.74-0.03c-0.66,0.39-1.36,0.68-2.1,0.87c-0.26,0.07-0.46,0.28-0.5,0.54l-0.36,2.11
			c-0.01,0.07-0.07,0.11-0.13,0.11h-2.11c-0.07,0-0.12-0.05-0.13-0.11l-0.35-2.11c-0.05-0.27-0.24-0.48-0.5-0.54
			c-0.72-0.19-1.41-0.47-2.06-0.84C7.81,19,7.69,18.97,7.57,18.97c-0.14,0-0.28,0.04-0.39,0.13l-1.75,1.25
			c-0.03,0.02-0.05,0.03-0.08,0.03c-0.02,0-0.06-0.01-0.1-0.04l-1.49-1.49c-0.05-0.05-0.05-0.12-0.02-0.17l1.23-1.73
			c0.16-0.22,0.17-0.51,0.03-0.74c-0.39-0.65-0.69-1.36-0.88-2.1c-0.07-0.26-0.28-0.45-0.54-0.5l-2.12-0.36
			c-0.07-0.01-0.11-0.07-0.11-0.13v-2.11c0-0.07,0.05-0.12,0.11-0.13l2.09-0.35c0.27-0.05,0.48-0.24,0.55-0.5
			c0.19-0.74,0.47-1.45,0.86-2.11c0.14-0.23,0.12-0.52-0.04-0.73L3.67,5.42C3.64,5.37,3.64,5.29,3.69,5.25l1.49-1.49
			c0.04-0.04,0.07-0.04,0.1-0.04c0.03,0,0.06,0.01,0.08,0.03l1.73,1.23C7.3,5.13,7.6,5.14,7.83,5c0.65-0.39,1.36-0.69,2.1-0.88
			c0.26-0.07,0.45-0.28,0.5-0.54l0.36-2.12c0.01-0.07,0.07-0.11,0.13-0.11h2.11c0.07,0,0.12,0.05,0.13,0.11l0.35,2.09
			c0.05,0.27,0.24,0.48,0.5,0.55c0.76,0.19,1.48,0.49,2.15,0.88c0.23,0.14,0.52,0.13,0.74-0.03l1.73-1.24
			c0.03-0.02,0.05-0.03,0.08-0.03c0.02,0,0.06,0.01,0.1,0.04l1.49,1.49c0.05,0.05,0.05,0.12,0.02,0.17l-1.24,1.74
			c-0.16,0.22-0.17,0.51-0.03,0.74c0.39,0.66,0.68,1.36,0.87,2.1c0.07,0.26,0.28,0.46,0.54,0.5l2.11,0.36
			c0.07,0.01,0.11,0.07,0.11,0.13L22.66,13.06L22.66,13.06z"/>
		<path d="M12,6.82c-2.86,0-5.18,2.32-5.18,5.18s2.32,5.18,5.18,5.18s5.18-2.32,5.18-5.18S14.86,6.82,12,6.82z M12,15.82
			c-2.11,0-3.83-1.71-3.83-3.83S9.89,8.17,12,8.17s3.83,1.71,3.83,3.83S14.11,15.82,12,15.82z"/>
	</g>
</g>
</svg>
