<?xml version="1.0" encoding="utf-8"?>
<!-- Generator: Adobe Illustrator 24.3.0, SVG Export Plug-In . SVG Version: 6.00 Build 0)  -->
<svg version="1.1" id="Layer_1" xmlns="http://www.w3.org/2000/svg" xmlns:xlink="http://www.w3.org/1999/xlink" x="0px" y="0px"
	 viewBox="0 0 24 24" style="enable-background:new 0 0 24 24;" xml:space="preserve">

<g>
	<path  d="M4.21,16.9c1.42,0.91,3.1,1.44,4.9,1.44c5.88,0,9.1-4.87,9.1-9.1c0-0.14,0-0.28-0.01-0.41
		c0.62-0.45,1.17-1.01,1.6-1.66c-0.57,0.25-1.19,0.43-1.84,0.5c0.66-0.4,1.17-1.02,1.41-1.77c-0.62,0.37-1.3,0.63-2.03,0.78
		C16.75,6.05,15.92,5.67,15,5.67c-1.77,0-3.2,1.43-3.2,3.2c0,0.25,0.03,0.49,0.08,0.73C9.23,9.46,6.87,8.19,5.29,6.25
		C5.02,6.72,4.86,7.27,4.86,7.86c0,1.11,0.56,2.09,1.42,2.66c-0.52-0.02-1.02-0.16-1.45-0.4c0,0.01,0,0.03,0,0.04
		c0,1.55,1.1,2.84,2.57,3.14c-0.27,0.07-0.55,0.11-0.84,0.11c-0.21,0-0.41-0.02-0.6-0.06c0.41,1.27,1.59,2.2,2.99,2.22
		c-1.09,0.86-2.47,1.37-3.97,1.37C4.71,16.94,4.46,16.93,4.21,16.9z"/>
	<path  d="M0,0v24h24V0H0z M22.52,22.52H1.48V1.48h21.03V22.52z"/>
</g>
</svg>
