<?xml version="1.0" encoding="utf-8"?>
<!-- Generator: Adobe Illustrator 24.3.0, SVG Export Plug-In . SVG Version: 6.00 Build 0)  -->
<svg version="1.1" id="Layer_1" xmlns="http://www.w3.org/2000/svg" xmlns:xlink="http://www.w3.org/1999/xlink" x="0px" y="0px"
	 viewBox="0 0 24 24" style="enable-background:new 0 0 24 24;" xml:space="preserve">
<style type="text/css">
	.st0{fill:#010101;}
</style>
<g>
	<path class="st0" d="M21.01,16.6V7.4V6.48H3.96H2.99V16.6v0.92h18.02V16.6z M20.04,16.6C20.04,16.61,20.04,16.61,20.04,16.6H3.96
		l0-9.21l16.08,0L20.04,16.6L20.04,16.6z M0,12.56V9.83h0.97v2.73H0z M24,5.4v2.73h-0.97V5.4L24,5.4z M0,18.03V15.3h0.97v2.73H0z
		 M1.13,23.7v0.18c-0.11,0-1.13,0-1.13,0v-0.94v-2.17h0.97l-0.01,2.29l0.17,0.01V23.7z M5.31,0h2.9v0.91h-2.9L5.31,0z M16.89,0h2.9
		v0.91h-2.9V0z M11.1,0H14v0.91h-2.9L11.1,0z M2.41,0.91H1.13l-0.16,0l0,0.71v0c0,0-0.97,0-0.97,0V0c0,0,0.51,0,1.13,0h1.28
		L2.41,0.91z M0,7.1V4.36h0.97V7.1C0.97,7.1,0.01,7.1,0,7.1z M6.51,24h-2.9v-0.91h2.9V24z M24,10.87v2.73h-0.97v-2.73H24z M24,21.8
		v1.13V24l-3.01,0v-0.91l2.05,0l0-0.15V21.8L24,21.8z M24,16.34v2.73l-0.97,0v-2.73L24,16.34z M24,0v2.66h-0.97l0.01-1.75
		c0,0-0.08,0-0.17,0h-0.19V0h0.19C23.49,0,24,0,24,0z M12.3,24H9.4v-0.91h2.9V24z M18.09,24h-2.9v-0.91h2.9L18.09,24z"/>
</g>
</svg>
