<?xml version="1.0" encoding="utf-8"?>
<!-- Generator: Adobe Illustrator 24.3.0, SVG Export Plug-In . SVG Version: 6.00 Build 0)  -->
<svg version="1.1" id="Layer_1" xmlns="http://www.w3.org/2000/svg" xmlns:xlink="http://www.w3.org/1999/xlink" x="0px" y="0px"
	 viewBox="0 0 100 100" style="enable-background:new 0 0 100 100;" xml:space="preserve">
<style type="text/css">
	.iconWebpack01{fill:#FFFFFF;}
	.iconWebpack02{fill:#A9ABAE;}
</style>
<g>
	<polygon class="iconWebpack01" points="50,0 94.19,25 94.19,75 50,100 5.81,75 5.81,25 	"/>
	<path class="iconWebpack02" d="M86.3,73.27L51.47,93V77.66L73.18,65.7L86.3,73.27z M88.69,71.12V29.9l-12.74,7.35v26.51L88.69,71.12z
		 M13.57,73.27L48.4,92.98V77.64L26.69,65.7L13.57,73.27L13.57,73.27z M11.18,71.12V29.9l12.74,7.35v26.51L11.18,71.12L11.18,71.12z
		 M12.66,27.23L48.4,7.02v14.84L25.5,34.45l-0.18,0.1L12.66,27.23L12.66,27.23z M87.19,27.23L51.47,7.02v14.84l22.88,12.61l0.18,0.1
		L87.19,27.23L87.19,27.23z"/>
	<path d="M48.4,74.15L26.99,62.36V39.04L48.4,51.39V74.15L48.4,74.15z M51.47,74.15l21.41-11.77V39.04L51.47,51.39V74.15z
		 M28.42,36.33l21.51-11.82l21.49,11.82L49.93,48.74L28.42,36.33L28.42,36.33z"/>
</g>
</svg>
