<?xml version="1.0" encoding="utf-8"?>
<!-- Generator: Adobe Illustrator 24.2.0, SVG Export Plug-In . SVG Version: 6.00 Build 0)  -->
<svg version="1.1" id="Warstwa_1" xmlns="http://www.w3.org/2000/svg" xmlns:xlink="http://www.w3.org/1999/xlink" x="0px" y="0px"
	 viewBox="0 0 24 24" style="enable-background:new 0 0 24 24;" xml:space="preserve">
<g>
	<path d="M0,1.9v0.5v19.7h24V1.9H0z M23,6.3H1V2.9h22V6.3z M1,21.1V7.3h22v13.8H1z"/>
	<rect x="3.8" y="9.6" width="16.6" height="1"/>
	<rect x="3.7" y="12.6" width="16.6" height="1"/>
	<rect x="3.7" y="15.7" width="16.6" height="1"/>
	<path d="M3.8,5.7c0.4,0,0.8-0.4,0.8-0.8S4.2,4.1,3.8,4.1C3.4,4.1,3,4.5,3,4.9S3.4,5.7,3.8,5.7z"/>
	<path d="M6,5.7c0.4,0,0.8-0.4,0.8-0.8S6.4,4.1,6,4.1S5.2,4.5,5.2,4.9S5.6,5.7,6,5.7z"/>
	<path d="M8.2,5.7C8.6,5.7,9,5.3,9,4.9S8.6,4.1,8.2,4.1c-0.4,0-0.8,0.4-0.8,0.8S7.8,5.7,8.2,5.7z"/>
</g>
</svg>
