<?xml version="1.0" encoding="utf-8"?>
<!-- Generator: Adobe Illustrator 24.3.0, SVG Export Plug-In . SVG Version: 6.00 Build 0)  -->
<svg version="1.1" id="Layer_1" xmlns="http://www.w3.org/2000/svg" xmlns:xlink="http://www.w3.org/1999/xlink" x="0px" y="0px"
	 viewBox="0 0 100 100" style="enable-background:new 0 0 100 100;" xml:space="preserve">
<style type="text/css">
	.iconWordpress{fill-rule:evenodd;clip-rule:evenodd;}
</style>
<g transform="matrix(1.0755 0 0 1.0755 -3.5103 -1.6684)">
	<path class="iconWordpress" d="M49.76,8.07c10.43,0,19.92,4,27.04,10.54c-3.49-0.09-6.97,1.98-7.11,6.73c-0.29,9.6,11.48,11.64,5.14,30.95
		l-5.25,15.97l-14.29-42.1c-0.22-0.65,0.04-1.02,0.84-1.02h4.04c0.21,0,0.38-0.18,0.38-0.4v-2.39c0-0.22-0.17-0.41-0.38-0.4
		c-7.65,0.33-15.26,0.34-22.82,0c-0.21-0.01-0.38,0.18-0.38,0.4v2.39c0,0.22,0.17,0.4,0.38,0.4h4.06c0.9,0,1.16,0.3,1.37,0.88
		l5.87,16.06l-8.83,26.67L25.29,29.99c-0.18-0.54,0.04-0.85,0.55-0.85h4.63c0.21,0,0.38-0.18,0.38-0.4v-2.39
		c0-0.22-0.17-0.41-0.38-0.4c-4.86,0.26-9.73,0.31-14.27,0.36C23.33,15.33,35.69,8.07,49.76,8.07L49.76,8.07L49.76,8.07z
		 M84.91,29.01c3.07,5.66,4.82,12.14,4.82,19.03c0,15.12-8.4,28.28-20.79,35.08L81.41,47.8C83.34,42.34,85.13,34.95,84.91,29.01
		L84.91,29.01L84.91,29.01z M63.14,85.72c-4.19,1.49-8.69,2.3-13.38,2.3c-4.04,0-7.95-0.6-11.63-1.72L50.44,51L63.14,85.72
		L63.14,85.72L63.14,85.72z M32.65,84.18C19.13,77.77,9.78,63.99,9.78,48.04c0-5.91,1.29-11.53,3.59-16.58L32.65,84.18L32.65,84.18
		L32.65,84.18z M49.75,4.32c24.14,0,43.73,19.58,43.73,43.73S73.9,91.77,49.75,91.77S6.03,72.18,6.03,48.04S25.61,4.32,49.75,4.32z
		 M49.75,1.55c25.67,0,46.49,20.82,46.49,46.49S75.42,94.53,49.75,94.53S3.26,73.71,3.26,48.04S24.08,1.55,49.75,1.55L49.75,1.55z"
		/>
</g>
</svg>
