<?xml version="1.0" encoding="utf-8"?>
<!-- Generator: Adobe Illustrator 23.1.1, SVG Export Plug-In . SVG Version: 6.00 Build 0)  -->
<svg version="1.1" id="Avatar" xmlns="http://www.w3.org/2000/svg" xmlns:xlink="http://www.w3.org/1999/xlink" x="0px" y="0px"
	 viewBox="0 0 251 308" style="enable-background:new 0 0 251 308;" xml:space="preserve">
<style type="text/css">
	.st0{fill:#7650E9;}
	.st1{fill:#FFFFFF;}
	.st2{fill:#15B367;}
	.st3{fill:none;}
	.st4{clip-path:url(#SVGID_2_);}
	.st5{fill:none;stroke:#000000;stroke-width:2.126;stroke-linecap:round;stroke-linejoin:round;stroke-miterlimit:10;}
	.st6{fill:#9274EC;}
</style>
<path id="Fill_1" class="st0" d="M223.6,135.5C223.6,80.1,177.7,35,121.4,35S19.3,80.1,19.3,135.5S65.2,236,121.4,236
	S223.6,190.9,223.6,135.5z"/>
<path id="Fill_3" class="st1" d="M124.5,162c26,0,47.3-20.9,47.3-46.5S150.5,69,124.5,69s-47.3,20.9-47.3,46.5S98.5,162,124.5,162"
	/>
<g>
	<path id="Fill_5" class="st2" d="M151.4,115c-0.2-15-12.4-27.1-27.4-27c-15-0.1-27.3,12-27.4,27c0.2,15,12.4,27.1,27.4,27
		C139,142.1,151.3,130,151.4,115z"/>
	<path id="Fill_7_1_" class="st1" d="M133.7,101.9c0-4.6-1.5-9.2-4.3-12.9c-1.7-0.3-3.3-0.5-5-0.5c-15,0-27.2,11.9-27.2,26.6
		c0,1.1,0.1,2.2,0.2,3.3c4,3.3,9,5.1,14.2,5c1.4,0,2.9-0.1,4.3-0.4c0.6-0.1,1.1-0.2,1.6-0.4c6.3-1.7,11.6-6.1,14.3-12.1
		C133.1,108,133.7,105,133.7,101.9"/>
	<path id="Fill_9" d="M136.2,115.5c-0.1-6.4-5.3-11.5-11.7-11.5c-6.4,0-11.6,5.1-11.7,11.5c0.1,6.4,5.3,11.5,11.7,11.5
		S136.1,121.9,136.2,115.5z"/>
	<path id="Fill_11" class="st0" d="M185.5,287.7c-20.1-2.6,10.4-45-6.6-72.7c-5.8,4-11.9,7.4-18.4,10.1c5.4,11.8,9.6,17.5,7.2,30.7
		c-0.9,5-2.1,9.9-3.2,14.9c-4.4,19.3-0.1,27.5,10,31.8c8.6,3.4,17.8,5,27.1,4.5C238.7,304.9,201.3,289.7,185.5,287.7"/>
</g>
<g id="Group_15" transform="translate(32.518 215)">
	<path id="Clip_14-2" class="st3" d="M0.4,0.9h57V93h-57C0.4,93,0.4,0.9,0.4,0.9z"/>
	<g>
		<g>
			<g>
				<defs>
					<rect id="SVGID_1_" x="0.4" y="0.9" width="57" height="92.1"/>
				</defs>
				<clipPath id="SVGID_2_">
					<use xlink:href="#SVGID_1_"  style="overflow:visible;"/>
				</clipPath>
				<g id="Group_15-2" class="st4">
					<path id="Fill_13" class="st0" d="M32.4,73.6C52.6,71,22,28.6,39,0.9c5.8,4,12,7.4,18.4,10.1c-5.4,11.8-9.6,17.5-7.2,30.7
						c0.9,5,2.1,9.9,3.2,14.9c4.4,19.3,0.1,27.6-10,31.8c-8.6,3.4-17.9,5-27.1,4.5C-20.8,90.9,16.6,75.7,32.4,73.6"/>
				</g>
			</g>
		</g>
	</g>
</g>
<path id="Fill_16" class="st0" d="M217.4,263c-20.2,0.1,4-46-16.7-71c-5.1,4.7-10.8,8.9-16.8,12.5c7,10.9,12,16,11.4,29.4
	c-0.2,5.1-0.7,10.1-1.1,15.2c-1.6,19.7,3.7,27.3,14.3,30.1c9,2.2,18.3,2.5,27.4,0.8C272.3,272.9,233.3,262.9,217.4,263"/>
<path id="Fill_18" class="st0" d="M50.3,192c5.1,4.7,10.8,8.9,16.8,12.5c-7,10.9-12,16-11.4,29.4c0.2,5.1,0.7,10.1,1.1,15.2
	c1.7,19.7-3.7,27.3-14.3,30.1c-9,2.2-18.3,2.5-27.4,0.8c-36.4-7,2.6-17,18.6-16.9C53.8,263.2,29.6,217.1,50.3,192z"/>
<path id="Stroke_20" class="st5" d="M192.1,136c-6.5,33.6-38.3,57.6-70.9,53.6c-19.5-2.3-36.3-14.9-43.9-33"/>
<path id="Fill_22" class="st0" d="M77.2,0c-4.8,19-14.3,33.1-4,50.9C64.3,56,56.1,62.5,49,70C37.9,41.1,48.6,15.8,77.2,0z"/>
<path id="Fill_24" class="st6" d="M68.4,29.2c0.4-2.8,1-5.5,1.7-8.2c-6.4,2.2-13.1,3.6-19.9,4.4c-1.4,2.8-2.6,5.6-3.5,8.6
	C54.1,33.3,61.4,31.6,68.4,29.2z"/>
<path id="Fill_26" class="st6" d="M71.1,47.2c-1.4-3.2-2.4-6.6-2.7-10.2c-7.6,2.4-15.4,3.9-23.3,4.4c-0.5,3.8-0.5,7.7-0.1,11.6
	C53.9,52.3,62.7,50.3,71.1,47.2z"/>
<path id="Fill_28" class="st0" d="M167.7,0c4.8,19,14.3,33.1,4,50.9c9,5.1,17.2,11.5,24.2,19.1C207,41.1,196.3,15.8,167.7,0z"/>
<path id="Fill_30" class="st6" d="M175.5,29.2c-0.4-2.8-1-5.5-1.7-8.2c6.4,2.2,13.1,3.6,19.9,4.4c1.4,2.8,2.6,5.6,3.5,8.6
	C189.8,33.3,182.5,31.6,175.5,29.2z"/>
<path id="Fill_32" class="st6" d="M173.8,47.2c1.4-3.2,2.4-6.6,2.7-10.2c7.6,2.4,15.4,3.9,23.3,4.4c0.5,3.8,0.5,7.7,0.1,11.6
	C191,52.3,182.2,50.3,173.8,47.2z"/>
</svg>
