<?xml version="1.0" encoding="utf-8"?>
<!-- Generator: Adobe Illustrator 24.0.3, SVG Export Plug-In . SVG Version: 6.00 Build 0)  -->
<svg version="1.1" xmlns="http://www.w3.org/2000/svg" xmlns:xlink="http://www.w3.org/1999/xlink" x="0px" y="0px"
	 viewBox="0 0 467.7 155.6" style="enable-background:new 0 0 467.7 155.6;" xml:space="preserve">
<g id="Warstwa_1">
	<g>
		<path d="M148.2,123.3c0,9.3-3.8,16.9-11.5,23c-7.2,5.7-15.8,8.5-25.7,8.5c-8.6,0-16.4-2.3-23.2-6.8c-7.7-5.1-13.1-12.4-16.3-21.9
			c-0.6-1.9-3.5-12.3-8.7-31.1C58.1,77.9,54,64.5,50.5,54.9c-4.9-13.2-8.8-19.5-11.8-19.1c-2,0.5-3.4,1.3-4.2,2.5
			c-0.8,1.2-1.2,2.8-1.2,4.8v109.7H0.9V35.5c0-10.7,4-18.8,12.1-24.4C20,6.3,28.9,3.9,39.7,3.9c14.5,0,26,7.3,34.6,21.9
			c5.7,9.7,11.2,25.5,16.4,47.3c5.7,23.9,9.9,38.8,12.6,44.5c1.4,3.1,3.6,4.7,6.6,4.7c1.6,0,3-0.6,4.1-1.9c1.2-1.3,1.7-3,1.7-5.3
			V5.5h32.5V123.3z"/>
		<path d="M308.8,152.7h-34.6L236.1,40.3c-0.2-1.2-1.1-1.8-2.5-1.8c-1.4,0-2.4,0.6-3,1.8l-37.3,112.5h-35.1
			c2-6.9,6.3-20.7,12.9-41.4c6.6-20.7,13-40.2,19.2-58.6c6.9-20.5,11.2-31.9,12.7-34.2c2.9-4.1,7.1-7.2,12.6-9.3S227,6,233.4,6
			c6.5,0,12.4,1.1,17.9,3.2c5.5,2.2,9.6,5.3,12.5,9.3c1.8,2.4,6.1,13.7,12.9,34c4.2,12.4,10.5,32,18.9,58.6
			C300.8,127.3,305.1,141.2,308.8,152.7z"/>
		<path d="M466,123.3c0,9.3-3.8,16.9-11.5,23c-7.2,5.7-15.8,8.5-25.7,8.5c-8.6,0-16.3-2.3-23.2-6.8c-7.7-5.1-13.1-12.4-16.3-21.9
			c-0.6-1.9-3.5-12.3-8.7-31.1c-4.7-17.1-8.8-30.4-12.3-40.1c-4.9-13.2-8.8-19.5-11.8-19.1c-2,0.5-3.4,1.3-4.2,2.5
			c-0.8,1.2-1.2,2.8-1.2,4.8v109.7h-32.3V35.5c0-10.7,4-18.8,12.1-24.4c6.9-4.8,15.8-7.2,26.7-7.2c14.5,0,26,7.3,34.6,21.9
			c5.7,9.7,11.2,25.5,16.4,47.3c5.7,23.9,9.9,38.8,12.6,44.5c1.4,3.1,3.6,4.7,6.6,4.7c1.6,0,3-0.6,4.1-1.9c1.2-1.3,1.7-3,1.7-5.3
			V5.5H466V123.3z"/>
	</g>
	<rect x="800" y="-153.3" style="fill:none;" width="11" height="2"/>
</g>
</svg>
