<?xml version="1.0" encoding="utf-8"?>
<!-- Generator: Adobe Illustrator 24.0.3, SVG Export Plug-In . SVG Version: 6.00 Build 0)  -->
<svg version="1.1" id="Warstwa_1" xmlns="http://www.w3.org/2000/svg" xmlns:xlink="http://www.w3.org/1999/xlink" x="0px" y="0px"
	 viewBox="0 0 200 60" style="enable-background:new 0 0 200 60;" xml:space="preserve">
<g>
	<path d="M58.91,47.32c0,3.62-1.5,6.62-4.5,9c-2.81,2.22-6.17,3.33-10.08,3.33c-3.38,0-6.41-0.89-9.09-2.67
		c-3-2-5.13-4.86-6.38-8.58c-0.25-0.75-1.39-4.81-3.42-12.19c-1.84-6.69-3.45-11.92-4.83-15.7c-1.91-5.16-3.45-7.66-4.64-7.5
		c-0.78,0.19-1.33,0.51-1.64,0.96c-0.31,0.45-0.47,1.09-0.47,1.9v42.98H1.21V12.91c0-4.19,1.58-7.38,4.73-9.56
		c2.72-1.88,6.2-2.81,10.45-2.81c5.69,0,10.2,2.86,13.55,8.58c2.25,3.81,4.39,9.98,6.42,18.52c2.25,9.38,3.89,15.19,4.92,17.44
		c0.56,1.22,1.42,1.83,2.58,1.83c0.62,0,1.16-0.25,1.62-0.75c0.45-0.5,0.68-1.19,0.68-2.06V1.14h12.75V47.32z"/>
	<path d="M129.53,58.85h-13.55l-14.95-44.06c-0.09-0.47-0.42-0.7-0.98-0.7c-0.53,0-0.92,0.23-1.17,0.7L84.24,58.85H70.51
		c0.78-2.72,2.46-8.12,5.04-16.22s5.09-15.75,7.52-22.97c2.72-8.03,4.38-12.5,4.97-13.41c1.12-1.59,2.77-2.81,4.92-3.66
		s4.5-1.27,7.03-1.27c2.53,0,4.87,0.42,7.01,1.27s3.77,2.06,4.9,3.66c0.69,0.94,2.38,5.38,5.06,13.31
		c1.66,4.88,4.13,12.53,7.41,22.97C126.37,48.88,128.09,54.32,129.53,58.85z"/>
	<path d="M198.78,47.32c0,3.62-1.5,6.62-4.5,9c-2.81,2.22-6.17,3.33-10.08,3.33c-3.38,0-6.41-0.89-9.09-2.67
		c-3-2-5.12-4.86-6.38-8.58c-0.25-0.75-1.39-4.81-3.42-12.19c-1.84-6.69-3.45-11.92-4.83-15.7c-1.91-5.16-3.45-7.66-4.64-7.5
		c-0.78,0.19-1.33,0.51-1.64,0.96c-0.31,0.45-0.47,1.09-0.47,1.9v42.98h-12.66V12.91c0-4.19,1.58-7.38,4.73-9.56
		c2.72-1.88,6.2-2.81,10.45-2.81c5.69,0,10.2,2.86,13.55,8.58c2.25,3.81,4.39,9.98,6.42,18.52c2.25,9.38,3.89,15.19,4.92,17.44
		c0.56,1.22,1.42,1.83,2.58,1.83c0.62,0,1.16-0.25,1.62-0.75s0.68-1.19,0.68-2.06V1.14h12.75V47.32z"/>
</g>
</svg>
